<svg width="59" height="59" viewBox="0 0 59 59" fill="none" xmlns="http://www.w3.org/2000/svg">
<path d="M52.0562 32.3885C52.1826 31.4667 52.2458 30.5141 52.2458 29.5C52.2458 28.5167 52.1826 27.5333 52.0246 26.6115L58.4377 21.7562C59.0063 21.326 59.1643 20.4964 58.8168 19.8818L52.7512 9.67969C52.3721 9.00365 51.5824 8.78854 50.8873 9.00364L43.337 11.9536C41.7574 10.7859 40.0831 9.8026 38.2192 9.0651L37.0819 1.2599C36.9556 0.522395 36.3237 0 35.5655 0H23.4345C22.6763 0 22.076 0.522395 21.9497 1.2599L20.8124 9.0651C18.9485 9.8026 17.2426 10.8167 15.6946 11.9536L8.14425 9.00364C7.44924 8.75781 6.65946 9.00365 6.28036 9.67969L0.246414 19.8818C-0.132683 20.5271 -0.00631753 21.326 0.625509 21.7562L7.03855 26.6115C6.8806 27.5333 6.75423 28.5474 6.75423 29.5C6.75423 30.4526 6.81741 31.4667 6.97537 32.3885L0.562327 37.2438C-0.00631748 37.674 -0.164274 38.5036 0.183231 39.1182L6.24877 49.3203C6.62786 49.9964 7.41765 50.2115 8.11266 49.9964L15.663 47.0463C17.2426 48.2141 18.9169 49.1974 20.7808 49.9349L21.9181 57.7401C22.076 58.4776 22.6763 59 23.4345 59H35.5655C36.3237 59 36.9556 58.4776 37.0503 57.7401L38.1876 49.9349C40.0515 49.1974 41.7574 48.2141 43.3054 47.0463L50.8558 49.9964C51.5508 50.2422 52.3405 49.9964 52.7196 49.3203L58.7852 39.1182C59.1643 38.4422 59.0063 37.674 58.4061 37.2438L52.0562 32.3885ZM29.5 40.5625C23.2449 40.5625 18.1271 35.5844 18.1271 29.5C18.1271 23.4156 23.2449 18.4375 29.5 18.4375C35.7551 18.4375 40.8729 23.4156 40.8729 29.5C40.8729 35.5844 35.7551 40.5625 29.5 40.5625Z" fill="#0596FF"/>
</svg>
