<svg width="1197" height="803" viewBox="0 0 1197 803" fill="none" xmlns="http://www.w3.org/2000/svg">
<g clip-path="url(#clip0)">
<rect width="1197" height="803" fill="white"/>
<circle cx="1103" cy="132" r="414" fill="#257CFF"/>
<path d="M187.176 547.584C177.76 547.584 169.224 545.56 161.568 541.512C154 537.376 148.016 531.7 143.616 524.484C139.304 517.18 137.148 508.952 137.148 499.8C137.148 490.648 139.304 482.464 143.616 475.248C148.016 467.944 154 462.268 161.568 458.22C169.224 454.084 177.804 452.016 187.308 452.016C195.316 452.016 202.532 453.424 208.956 456.24C215.468 459.056 220.924 463.104 225.324 468.384L211.596 481.056C205.348 473.84 197.604 470.232 188.364 470.232C182.644 470.232 177.54 471.508 173.052 474.06C168.564 476.524 165.044 480 162.492 484.488C160.028 488.976 158.796 494.08 158.796 499.8C158.796 505.52 160.028 510.624 162.492 515.112C165.044 519.6 168.564 523.12 173.052 525.672C177.54 528.136 182.644 529.368 188.364 529.368C197.604 529.368 205.348 525.716 211.596 518.412L225.324 531.084C220.924 536.452 215.468 540.544 208.956 543.36C202.444 546.176 195.184 547.584 187.176 547.584ZM282.579 547.584C272.987 547.584 264.319 545.516 256.575 541.38C248.919 537.244 242.891 531.568 238.491 524.352C234.179 517.048 232.023 508.864 232.023 499.8C232.023 490.736 234.179 482.596 238.491 475.38C242.891 468.076 248.919 462.356 256.575 458.22C264.319 454.084 272.987 452.016 282.579 452.016C292.171 452.016 300.795 454.084 308.451 458.22C316.107 462.356 322.135 468.076 326.535 475.38C330.935 482.596 333.135 490.736 333.135 499.8C333.135 508.864 330.935 517.048 326.535 524.352C322.135 531.568 316.107 537.244 308.451 541.38C300.795 545.516 292.171 547.584 282.579 547.584ZM282.579 529.368C288.035 529.368 292.963 528.136 297.363 525.672C301.763 523.12 305.195 519.6 307.659 515.112C310.211 510.624 311.487 505.52 311.487 499.8C311.487 494.08 310.211 488.976 307.659 484.488C305.195 480 301.763 476.524 297.363 474.06C292.963 471.508 288.035 470.232 282.579 470.232C277.123 470.232 272.195 471.508 267.795 474.06C263.395 476.524 259.919 480 257.367 484.488C254.903 488.976 253.671 494.08 253.671 499.8C253.671 505.52 254.903 510.624 257.367 515.112C259.919 519.6 263.395 523.12 267.795 525.672C272.195 528.136 277.123 529.368 282.579 529.368ZM349.206 453.6H391.182C401.214 453.6 410.058 455.536 417.714 459.408C425.458 463.192 431.442 468.56 435.666 475.512C439.978 482.464 442.134 490.56 442.134 499.8C442.134 509.04 439.978 517.136 435.666 524.088C431.442 531.04 425.458 536.452 417.714 540.324C410.058 544.108 401.214 546 391.182 546H349.206V453.6ZM390.126 528.444C399.366 528.444 406.714 525.892 412.17 520.788C417.714 515.596 420.486 508.6 420.486 499.8C420.486 491 417.714 484.048 412.17 478.944C406.714 473.752 399.366 471.156 390.126 471.156H370.59V528.444H390.126ZM529.805 528.84V546H458.261V453.6H528.089V470.76H479.513V490.824H522.413V507.456H479.513V528.84H529.805Z" fill="#257CFF"/>
<path d="M181.938 628.752V634H141.348V576.6H180.708V581.848H147.416V602.266H177.1V607.432H147.416V628.752H181.938ZM210.962 576.6H234.332C240.4 576.6 245.757 577.83 250.404 580.29C255.05 582.695 258.658 586.085 261.228 590.458C263.797 594.777 265.082 599.724 265.082 605.3C265.082 610.876 263.797 615.851 261.228 620.224C258.658 624.543 255.05 627.932 250.404 630.392C245.757 632.797 240.4 634 234.332 634H210.962V576.6ZM234.004 628.752C239.033 628.752 243.434 627.768 247.206 625.8C250.978 623.777 253.902 621.017 255.98 617.518C258.057 613.965 259.096 609.892 259.096 605.3C259.096 600.708 258.057 596.663 255.98 593.164C253.902 589.611 250.978 586.85 247.206 584.882C243.434 582.859 239.033 581.848 234.004 581.848H217.03V628.752H234.004ZM293.468 576.6H299.536V634H293.468V576.6ZM344.124 581.848H323.952V576.6H370.364V581.848H350.192V634H344.124V581.848ZM419.109 634.492C413.424 634.492 408.258 633.235 403.611 630.72C399.019 628.151 395.411 624.652 392.787 620.224C390.218 615.796 388.933 610.821 388.933 605.3C388.933 599.779 390.218 594.804 392.787 590.376C395.411 585.948 399.019 582.477 403.611 579.962C408.258 577.393 413.424 576.108 419.109 576.108C424.794 576.108 429.906 577.365 434.443 579.88C439.035 582.395 442.643 585.893 445.267 590.376C447.891 594.804 449.203 599.779 449.203 605.3C449.203 610.821 447.891 615.823 445.267 620.306C442.643 624.734 439.035 628.205 434.443 630.72C429.906 633.235 424.794 634.492 419.109 634.492ZM419.109 629.08C423.646 629.08 427.746 628.069 431.409 626.046C435.072 623.969 437.942 621.126 440.019 617.518C442.096 613.855 443.135 609.783 443.135 605.3C443.135 600.817 442.096 596.772 440.019 593.164C437.942 589.501 435.072 586.659 431.409 584.636C427.746 582.559 423.646 581.52 419.109 581.52C414.572 581.52 410.444 582.559 406.727 584.636C403.064 586.659 400.167 589.501 398.035 593.164C395.958 596.772 394.919 600.817 394.919 605.3C394.919 609.783 395.958 613.855 398.035 617.518C400.167 621.126 403.064 623.969 406.727 626.046C410.444 628.069 414.572 629.08 419.109 629.08ZM516.76 634L503.64 615.55C502.164 615.714 500.633 615.796 499.048 615.796H483.632V634H477.564V576.6H499.048C506.373 576.6 512.113 578.349 516.268 581.848C520.423 585.347 522.5 590.157 522.5 596.28C522.5 600.763 521.352 604.562 519.056 607.678C516.815 610.739 513.589 612.953 509.38 614.32L523.402 634H516.76ZM498.884 610.63C504.569 610.63 508.915 609.373 511.922 606.858C514.929 604.343 516.432 600.817 516.432 596.28C516.432 591.633 514.929 588.08 511.922 585.62C508.915 583.105 504.569 581.848 498.884 581.848H483.632V610.63H498.884Z" fill="black"/>
<circle cx="510" cy="178" r="46" fill="#257CFF"/>
<circle cx="238" cy="304" r="19" fill="#257CFF"/>
</g>
<defs>
<clipPath id="clip0">
<rect width="1197" height="803" fill="white"/>
</clipPath>
</defs>
</svg>
