<svg width="400" height="300" viewBox="0 0 400 300" fill="none" xmlns="http://www.w3.org/2000/svg">
<g clip-path="url(#clip0_202_2)">
<rect width="400" height="300" fill="white"/>
<g opacity="0.1">
<path fill-rule="evenodd" clip-rule="evenodd" d="M4.74904 108.95L33.152 134.393L-87.3376 268.902L-20.7061 323.744L38.7267 257.843L67.0439 283.381L-16.7981 376.348L-142.27 273.076L4.74904 108.95Z" fill="#9E74C8"/>
<path fill-rule="evenodd" clip-rule="evenodd" d="M27.7549 418.604L-0.250396 392.725L120.722 261.816L7.60318 161.902L32.8469 133.322L175.195 259.054L27.7549 418.604Z" fill="#9E74C8"/>
<path opacity="0.5" fill-rule="evenodd" clip-rule="evenodd" d="M123.047 416.634L95.0415 390.754L216.014 259.846L102.895 159.931L128.139 131.351L270.487 257.084L123.047 416.634Z" fill="#9E6FCD"/>
<path opacity="0.2" fill-rule="evenodd" clip-rule="evenodd" d="M218.338 414.662L190.333 388.782L311.305 257.874L198.186 157.959L223.43 129.379L365.779 255.112L218.338 414.662Z" fill="#9E6FCD"/>
</g>
<path fill-rule="evenodd" clip-rule="evenodd" d="M168.173 80.7471L176.575 88.2733L140.933 128.063L160.643 144.286L178.224 124.791L186.6 132.346L161.799 159.846L124.683 129.297L168.173 80.7471Z" fill="#9E74C8"/>
<path fill-rule="evenodd" clip-rule="evenodd" d="M174.978 172.346L166.694 164.691L202.479 125.967L169.017 96.4108L176.485 87.9565L218.593 125.149L174.978 172.346Z" fill="#9E74C8"/>
<path opacity="0.5" fill-rule="evenodd" clip-rule="evenodd" d="M203.167 171.763L194.882 164.108L230.667 125.384L197.206 95.8279L204.673 87.3737L246.781 124.567L203.167 171.763Z" fill="#9E6FCD"/>
<path opacity="0.2" fill-rule="evenodd" clip-rule="evenodd" d="M231.355 171.18L223.071 163.524L258.856 124.8L225.394 95.2445L232.861 86.7903L274.969 123.983L231.355 171.18Z" fill="#9E6FCD"/>
<path d="M122.827 206.143C122.766 207.295 122.348 208.259 121.572 209.035C120.796 209.811 119.65 210.393 118.134 210.781C116.631 211.169 114.727 211.363 112.423 211.363C110.665 211.363 109.088 211.266 107.694 211.072C106.299 210.891 105.111 210.575 104.129 210.127C103.147 209.666 102.395 209.041 101.873 208.253C101.352 207.465 101.091 206.471 101.091 205.27C101.091 204.07 101.352 203.069 101.873 202.269C102.395 201.457 103.147 200.814 104.129 200.341C105.111 199.856 106.299 199.51 107.694 199.304C109.088 199.098 110.665 198.995 112.423 198.995C114.727 198.995 116.637 199.207 118.152 199.632C119.668 200.044 120.814 200.656 121.59 201.469C122.366 202.281 122.784 203.269 122.845 204.433H118.116C117.97 204.045 117.704 203.706 117.316 203.415C116.928 203.112 116.346 202.875 115.57 202.706C114.794 202.536 113.745 202.451 112.423 202.451C110.871 202.451 109.61 202.548 108.64 202.742C107.67 202.924 106.96 203.221 106.512 203.633C106.063 204.045 105.839 204.591 105.839 205.27C105.839 205.889 106.063 206.392 106.512 206.78C106.96 207.168 107.67 207.453 108.64 207.635C109.61 207.817 110.871 207.908 112.423 207.908C113.745 207.908 114.787 207.829 115.551 207.671C116.327 207.513 116.909 207.301 117.298 207.034C117.686 206.756 117.952 206.459 118.098 206.143H122.827ZM124.762 202.087H129.128V211H124.762V202.087ZM133.82 205.452C133.032 205.452 132.311 205.525 131.656 205.67C131.001 205.816 130.443 205.992 129.982 206.198C129.522 206.392 129.176 206.586 128.946 206.78L128.909 205.907C128.946 205.652 129.043 205.355 129.2 205.016C129.358 204.664 129.57 204.306 129.837 203.942C130.104 203.566 130.431 203.221 130.819 202.906C131.207 202.578 131.65 202.318 132.147 202.124C132.656 201.917 133.214 201.814 133.82 201.814V205.452ZM134.284 202.087H138.922L144.233 210.636L140.468 211L134.284 202.087ZM151.017 202.087L142.159 214.637H137.703L141.505 209.49L146.379 202.087H151.017ZM163.016 211.272C161.925 211.272 160.943 211.163 160.07 210.945C159.197 210.715 158.451 210.393 157.832 209.981C157.214 209.557 156.741 209.053 156.414 208.471C156.086 207.889 155.923 207.247 155.923 206.543C155.923 205.84 156.086 205.203 156.414 204.634C156.741 204.052 157.214 203.554 157.832 203.142C158.451 202.718 159.197 202.396 160.07 202.178C160.943 201.948 161.925 201.832 163.016 201.832C164.326 201.832 165.49 202.02 166.508 202.396C167.539 202.76 168.346 203.294 168.928 203.997C169.51 204.7 169.801 205.549 169.801 206.543C169.801 207.586 169.51 208.459 168.928 209.163C168.346 209.866 167.539 210.393 166.508 210.745C165.49 211.097 164.326 211.272 163.016 211.272ZM161.379 208.49C162.204 208.49 162.907 208.417 163.489 208.271C164.071 208.126 164.514 207.914 164.817 207.635C165.12 207.344 165.272 206.98 165.272 206.543C165.272 205.901 164.932 205.416 164.253 205.088C163.574 204.761 162.616 204.597 161.379 204.597C160.458 204.597 159.609 204.652 158.833 204.761C158.069 204.87 157.45 205.07 156.978 205.361C156.517 205.64 156.286 206.034 156.286 206.543C156.286 207.053 156.517 207.453 156.978 207.744C157.45 208.023 158.069 208.217 158.833 208.326C159.609 208.435 160.458 208.49 161.379 208.49ZM151.921 202.087H156.032L156.286 205.543V214.637H151.921V202.087ZM170.81 202.087H181.505V204.815H170.81V202.087ZM173.975 199.359H178.34V211H173.975V199.359ZM191.143 211.272C189.215 211.272 187.609 211.115 186.323 210.8C185.05 210.484 184.092 209.981 183.45 209.29C182.819 208.599 182.504 207.689 182.504 206.562C182.504 205.434 182.819 204.524 183.45 203.833C184.092 203.13 185.05 202.621 186.323 202.305C187.609 201.978 189.215 201.814 191.143 201.814C193.059 201.814 194.648 201.978 195.909 202.305C197.182 202.621 198.134 203.13 198.765 203.833C199.395 204.524 199.71 205.434 199.71 206.562C199.71 207.689 199.395 208.599 198.765 209.29C198.134 209.981 197.182 210.484 195.909 210.8C194.648 211.115 193.059 211.272 191.143 211.272ZM191.143 208.635C192.041 208.635 192.793 208.562 193.399 208.417C194.005 208.259 194.466 208.029 194.781 207.726C195.096 207.41 195.254 207.022 195.254 206.562C195.254 206.101 195.096 205.713 194.781 205.397C194.478 205.082 194.023 204.846 193.417 204.688C192.811 204.53 192.053 204.452 191.143 204.452C190.246 204.452 189.482 204.53 188.852 204.688C188.233 204.846 187.76 205.082 187.433 205.397C187.118 205.701 186.96 206.089 186.96 206.562C186.96 207.022 187.118 207.41 187.433 207.726C187.748 208.029 188.215 208.259 188.833 208.417C189.464 208.562 190.234 208.635 191.143 208.635ZM201.068 207.798H205.087C205.257 208.114 205.579 208.332 206.051 208.453C206.536 208.574 207.228 208.635 208.125 208.635C208.816 208.635 209.325 208.599 209.653 208.526C209.992 208.453 210.211 208.356 210.308 208.235C210.417 208.114 210.471 207.986 210.471 207.853C210.471 207.647 210.356 207.507 210.126 207.435C209.907 207.35 209.532 207.301 208.998 207.289C208.464 207.265 207.731 207.253 206.797 207.253C205.912 207.253 205.118 207.216 204.414 207.144C203.723 207.059 203.135 206.931 202.65 206.762C202.165 206.58 201.795 206.331 201.541 206.016C201.286 205.701 201.159 205.307 201.159 204.834C201.159 204.252 201.347 203.767 201.722 203.379C202.098 202.978 202.608 202.669 203.25 202.451C203.893 202.221 204.633 202.057 205.469 201.96C206.318 201.863 207.203 201.814 208.125 201.814C209.653 201.814 210.902 201.972 211.872 202.287C212.842 202.59 213.557 203.003 214.018 203.524C214.479 204.045 214.703 204.634 214.691 205.288H210.78C210.647 204.973 210.392 204.755 210.017 204.634C209.653 204.512 209.022 204.452 208.125 204.452C207.276 204.452 206.658 204.518 206.27 204.652C205.894 204.773 205.706 204.973 205.706 205.252C205.706 205.434 205.797 205.573 205.979 205.67C206.173 205.755 206.53 205.816 207.052 205.852C207.585 205.889 208.361 205.907 209.38 205.907C210.083 205.907 210.768 205.931 211.435 205.98C212.114 206.028 212.721 206.131 213.254 206.289C213.8 206.446 214.23 206.689 214.546 207.016C214.861 207.344 215.018 207.792 215.018 208.362C215.018 209.053 214.734 209.617 214.164 210.054C213.606 210.478 212.812 210.787 211.781 210.981C210.75 211.175 209.532 211.272 208.125 211.272C206.9 211.272 205.863 211.194 205.015 211.036C204.178 210.878 203.493 210.672 202.959 210.418C202.426 210.151 202.014 209.866 201.722 209.563C201.444 209.247 201.256 208.938 201.159 208.635C201.074 208.32 201.043 208.041 201.068 207.798ZM228.765 207.798H233.058C232.949 208.502 232.597 209.114 232.003 209.635C231.421 210.157 230.566 210.563 229.438 210.854C228.323 211.133 226.898 211.272 225.164 211.272C223.333 211.272 221.751 211.127 220.417 210.836C219.095 210.545 218.077 210.054 217.361 209.363C216.646 208.671 216.288 207.738 216.288 206.562C216.288 205.397 216.634 204.47 217.325 203.779C218.028 203.075 219.041 202.572 220.362 202.269C221.684 201.966 223.285 201.814 225.164 201.814C227.007 201.814 228.517 201.978 229.693 202.305C230.869 202.633 231.736 203.166 232.294 203.906C232.852 204.634 233.119 205.622 233.094 206.871H220.726C220.787 207.186 220.956 207.477 221.235 207.744C221.526 208.011 221.969 208.229 222.563 208.399C223.169 208.556 223.976 208.635 224.982 208.635C226.025 208.635 226.88 208.562 227.547 208.417C228.226 208.271 228.632 208.065 228.765 207.798ZM224.982 204.452C223.697 204.452 222.715 204.591 222.036 204.87C221.369 205.149 220.975 205.428 220.853 205.707H228.856C228.772 205.391 228.432 205.106 227.838 204.852C227.244 204.585 226.292 204.452 224.982 204.452ZM234.552 202.087H238.917V211H234.552V202.087ZM245.465 201.814C246.181 201.814 246.872 201.893 247.539 202.051C248.206 202.196 248.8 202.451 249.321 202.815C249.855 203.178 250.279 203.676 250.595 204.306C250.91 204.937 251.067 205.731 251.067 206.689V211H246.702V207.235C246.702 206.325 246.466 205.682 245.993 205.307C245.52 204.919 244.665 204.725 243.428 204.725C242.773 204.725 242.137 204.797 241.518 204.943C240.912 205.088 240.366 205.264 239.881 205.47C239.396 205.664 239.014 205.858 238.735 206.052L238.699 205.361C238.748 205.143 238.911 204.84 239.19 204.452C239.481 204.052 239.9 203.651 240.445 203.251C240.991 202.851 241.676 202.512 242.501 202.233C243.337 201.954 244.326 201.814 245.465 201.814ZM259.308 211.254C257.998 211.254 256.834 211.072 255.816 210.709C254.797 210.333 253.991 209.793 253.396 209.09C252.814 208.387 252.523 207.538 252.523 206.543C252.523 205.501 252.814 204.628 253.396 203.924C253.991 203.221 254.797 202.693 255.816 202.342C256.834 201.99 257.998 201.814 259.308 201.814C260.399 201.814 261.381 201.93 262.254 202.16C263.127 202.378 263.873 202.699 264.492 203.124C265.11 203.536 265.583 204.033 265.91 204.615C266.238 205.197 266.401 205.84 266.401 206.543C266.401 207.247 266.238 207.889 265.91 208.471C265.583 209.041 265.11 209.538 264.492 209.963C263.873 210.375 263.127 210.696 262.254 210.927C261.381 211.145 260.399 211.254 259.308 211.254ZM260.945 208.49C261.866 208.49 262.709 208.435 263.473 208.326C264.249 208.205 264.868 208.005 265.328 207.726C265.801 207.447 266.038 207.053 266.038 206.543C266.038 206.022 265.801 205.622 265.328 205.343C264.868 205.064 264.249 204.87 263.473 204.761C262.709 204.652 261.866 204.597 260.945 204.597C259.708 204.597 258.75 204.761 258.071 205.088C257.392 205.404 257.052 205.889 257.052 206.543C257.052 206.968 257.204 207.326 257.507 207.617C257.81 207.908 258.253 208.126 258.835 208.271C259.417 208.417 260.12 208.49 260.945 208.49ZM266.038 198.449H270.403V211H266.292C266.244 210.721 266.189 210.272 266.129 209.654C266.068 209.023 266.038 208.32 266.038 207.544V198.449ZM284.966 207.798H289.258C289.149 208.502 288.798 209.114 288.204 209.635C287.621 210.157 286.767 210.563 285.639 210.854C284.523 211.133 283.099 211.272 281.365 211.272C279.534 211.272 277.951 211.127 276.617 210.836C275.296 210.545 274.277 210.054 273.562 209.363C272.846 208.671 272.488 207.738 272.488 206.562C272.488 205.397 272.834 204.47 273.525 203.779C274.228 203.075 275.241 202.572 276.563 202.269C277.884 201.966 279.485 201.814 281.365 201.814C283.208 201.814 284.717 201.978 285.894 202.305C287.07 202.633 287.937 203.166 288.495 203.906C289.052 204.634 289.319 205.622 289.295 206.871H276.926C276.987 207.186 277.157 207.477 277.436 207.744C277.727 208.011 278.169 208.229 278.764 208.399C279.37 208.556 280.176 208.635 281.183 208.635C282.225 208.635 283.08 208.562 283.747 208.417C284.426 208.271 284.833 208.065 284.966 207.798ZM281.183 204.452C279.897 204.452 278.915 204.591 278.236 204.87C277.569 205.149 277.175 205.428 277.054 205.707H285.057C284.972 205.391 284.632 205.106 284.038 204.852C283.444 204.585 282.492 204.452 281.183 204.452ZM290.753 202.087H295.118V211H290.753V202.087ZM299.811 205.452C299.022 205.452 298.301 205.525 297.646 205.67C296.991 205.816 296.433 205.992 295.973 206.198C295.512 206.392 295.166 206.586 294.936 206.78L294.9 205.907C294.936 205.652 295.033 205.355 295.191 205.016C295.348 204.664 295.56 204.306 295.827 203.942C296.094 203.566 296.421 203.221 296.809 202.906C297.197 202.578 297.64 202.318 298.137 202.124C298.646 201.917 299.204 201.814 299.811 201.814V205.452Z" fill="#4B4B4B"/>
<path d="M165.459 226.334C165.016 226.334 164.637 226.256 164.322 226.102C164.006 225.941 163.751 225.733 163.557 225.478C163.362 225.216 163.218 224.934 163.124 224.632C163.03 224.324 162.983 224.022 162.983 223.726C162.983 223.357 163.027 223.015 163.114 222.7C163.208 222.384 163.352 222.109 163.547 221.874C163.741 221.633 163.996 221.445 164.312 221.311C164.627 221.176 165.01 221.109 165.459 221.109C165.976 221.109 166.432 221.22 166.828 221.441C167.231 221.656 167.546 221.958 167.774 222.347C168.009 222.737 168.127 223.196 168.127 223.726C168.127 224.243 168.009 224.699 167.774 225.095C167.54 225.485 167.221 225.79 166.818 226.011C166.415 226.226 165.963 226.334 165.459 226.334ZM165.036 225.327C165.392 225.327 165.701 225.26 165.963 225.126C166.224 224.991 166.426 224.807 166.566 224.572C166.714 224.33 166.788 224.049 166.788 223.726C166.788 223.243 166.634 222.854 166.325 222.559C166.023 222.264 165.593 222.116 165.036 222.116C164.647 222.116 164.308 222.18 164.02 222.307C163.731 222.435 163.506 222.619 163.345 222.861C163.191 223.096 163.114 223.384 163.114 223.726C163.114 224.042 163.191 224.32 163.345 224.562C163.5 224.803 163.721 224.991 164.01 225.126C164.298 225.26 164.641 225.327 165.036 225.327ZM163.114 219.207V224.934C163.114 225.149 163.104 225.381 163.084 225.629C163.064 225.87 163.043 226.068 163.023 226.223H161.805V219.207H163.114ZM168.445 221.22H169.834L171.998 226.021L170.871 226.223L168.445 221.22ZM174.565 221.22L171.102 228.236H169.743L171.223 225.478L173.166 221.22H174.565ZM181.65 219.71C182.382 219.71 182.992 219.797 183.482 219.972C183.972 220.146 184.361 220.385 184.65 220.687C184.945 220.982 185.153 221.324 185.274 221.713C185.401 222.102 185.465 222.512 185.465 222.941C185.465 223.371 185.395 223.783 185.254 224.179C185.12 224.575 184.902 224.928 184.6 225.236C184.304 225.538 183.912 225.78 183.422 225.961C182.939 226.136 182.348 226.223 181.65 226.223H177.926V219.71H181.65ZM179.265 225.075H181.62C182.103 225.075 182.502 225.018 182.818 224.904C183.14 224.783 183.395 224.622 183.583 224.421C183.771 224.22 183.905 223.991 183.986 223.736C184.066 223.481 184.106 223.216 184.106 222.941C184.106 222.666 184.066 222.404 183.986 222.156C183.905 221.908 183.771 221.686 183.583 221.492C183.395 221.297 183.14 221.143 182.818 221.029C182.502 220.915 182.103 220.858 181.62 220.858H179.265V225.075ZM189.038 226.334C188.541 226.334 188.088 226.226 187.679 226.011C187.276 225.79 186.954 225.485 186.712 225.095C186.478 224.699 186.36 224.243 186.36 223.726C186.36 223.196 186.481 222.737 186.723 222.347C186.964 221.958 187.29 221.656 187.699 221.441C188.115 221.22 188.585 221.109 189.108 221.109C189.685 221.109 190.148 221.227 190.497 221.462C190.853 221.69 191.111 222.002 191.272 222.398C191.433 222.794 191.514 223.237 191.514 223.726C191.514 224.022 191.467 224.324 191.373 224.632C191.279 224.934 191.135 225.216 190.94 225.478C190.746 225.733 190.491 225.941 190.175 226.102C189.86 226.256 189.481 226.334 189.038 226.334ZM189.46 225.327C189.856 225.327 190.199 225.26 190.487 225.126C190.776 224.991 190.997 224.803 191.152 224.562C191.306 224.32 191.383 224.042 191.383 223.726C191.383 223.384 191.303 223.096 191.141 222.861C190.987 222.619 190.766 222.438 190.477 222.317C190.195 222.19 189.856 222.126 189.46 222.126C188.903 222.126 188.471 222.274 188.162 222.569C187.853 222.857 187.699 223.243 187.699 223.726C187.699 224.049 187.773 224.33 187.92 224.572C188.068 224.807 188.273 224.991 188.534 225.126C188.803 225.26 189.112 225.327 189.46 225.327ZM191.383 221.22H192.692V226.223H191.474C191.474 226.223 191.464 226.159 191.443 226.032C191.43 225.897 191.417 225.73 191.403 225.528C191.39 225.327 191.383 225.129 191.383 224.934V221.22ZM196.634 225.367H196.161L197.993 221.22H199.422L197.017 226.223H195.778L193.423 221.22H194.862L196.634 225.367ZM201.687 219.026V220.173H200.167V219.026H201.687ZM200.267 221.22H201.576V226.223H200.267V221.22ZM205.316 226.334C204.813 226.334 204.357 226.226 203.947 226.011C203.545 225.79 203.226 225.485 202.991 225.095C202.756 224.699 202.639 224.243 202.639 223.726C202.639 223.196 202.753 222.737 202.981 222.347C203.216 221.958 203.535 221.656 203.937 221.441C204.34 221.22 204.8 221.109 205.316 221.109C205.766 221.109 206.148 221.176 206.464 221.311C206.779 221.445 207.034 221.633 207.229 221.874C207.423 222.109 207.564 222.384 207.652 222.7C207.745 223.015 207.792 223.357 207.792 223.726C207.792 224.022 207.745 224.324 207.652 224.632C207.558 224.934 207.413 225.216 207.219 225.478C207.024 225.733 206.769 225.941 206.454 226.102C206.138 226.256 205.759 226.334 205.316 226.334ZM205.739 225.327C206.135 225.327 206.477 225.26 206.766 225.126C207.054 224.991 207.276 224.803 207.43 224.562C207.584 224.32 207.662 224.042 207.662 223.726C207.662 223.384 207.581 223.096 207.42 222.861C207.266 222.619 207.044 222.435 206.756 222.307C206.474 222.18 206.135 222.116 205.739 222.116C205.182 222.116 204.749 222.264 204.44 222.559C204.132 222.854 203.977 223.243 203.977 223.726C203.977 224.049 204.051 224.33 204.199 224.572C204.347 224.807 204.551 224.991 204.813 225.126C205.081 225.26 205.39 225.327 205.739 225.327ZM207.662 219.207H208.97V226.223H207.752C207.732 226.068 207.712 225.87 207.692 225.629C207.672 225.381 207.662 225.149 207.662 224.934V219.207ZM212.547 224.028H213.906C213.933 224.257 214.037 224.465 214.218 224.652C214.406 224.834 214.651 224.978 214.953 225.085C215.255 225.186 215.594 225.236 215.969 225.236C216.312 225.236 216.593 225.199 216.815 225.126C217.036 225.052 217.201 224.948 217.308 224.814C217.415 224.679 217.469 224.518 217.469 224.33C217.469 224.149 217.402 224.012 217.268 223.918C217.134 223.817 216.922 223.736 216.634 223.676C216.345 223.609 215.966 223.542 215.496 223.475C215.127 223.421 214.778 223.347 214.449 223.253C214.121 223.153 213.829 223.025 213.574 222.871C213.325 222.716 213.127 222.529 212.98 222.307C212.839 222.079 212.768 221.811 212.768 221.502C212.768 221.119 212.876 220.784 213.09 220.495C213.312 220.207 213.637 219.982 214.067 219.821C214.496 219.66 215.023 219.579 215.647 219.579C216.587 219.579 217.308 219.781 217.811 220.183C218.321 220.579 218.57 221.126 218.556 221.824H217.248C217.221 221.428 217.053 221.143 216.744 220.968C216.442 220.794 216.06 220.707 215.597 220.707C215.167 220.707 214.812 220.77 214.53 220.898C214.255 221.025 214.117 221.243 214.117 221.552C214.117 221.673 214.151 221.78 214.218 221.874C214.285 221.962 214.399 222.039 214.56 222.106C214.721 222.173 214.939 222.237 215.214 222.297C215.489 222.357 215.832 222.418 216.241 222.478C216.624 222.532 216.969 222.606 217.278 222.7C217.593 222.787 217.862 222.904 218.083 223.052C218.311 223.193 218.486 223.374 218.607 223.596C218.727 223.817 218.788 224.089 218.788 224.411C218.788 224.807 218.684 225.152 218.476 225.448C218.274 225.736 217.959 225.961 217.53 226.122C217.107 226.283 216.556 226.364 215.879 226.364C215.396 226.364 214.969 226.313 214.6 226.213C214.231 226.105 213.913 225.964 213.644 225.79C213.376 225.615 213.158 225.424 212.99 225.216C212.822 225.008 212.701 224.8 212.627 224.592C212.56 224.384 212.533 224.196 212.547 224.028ZM219.898 219.207H221.207V226.223H219.898V219.207ZM224.03 219.026V220.173H222.51V219.026H224.03ZM222.611 221.22H223.92V226.223H222.611V221.22ZM225.224 221.22H226.533V226.223H225.224V221.22ZM228.858 221.109C229.166 221.109 229.452 221.15 229.713 221.23C229.975 221.311 230.203 221.435 230.398 221.603C230.592 221.77 230.743 221.985 230.851 222.247C230.958 222.502 231.012 222.807 231.012 223.163V226.223H229.703V223.394C229.703 222.971 229.599 222.663 229.391 222.468C229.19 222.267 228.858 222.166 228.395 222.166C228.046 222.166 227.73 222.233 227.449 222.368C227.167 222.502 226.939 222.673 226.764 222.881C226.59 223.082 226.489 223.294 226.462 223.515L226.452 223.002C226.486 222.767 226.563 222.539 226.683 222.317C226.804 222.096 226.965 221.894 227.167 221.713C227.375 221.525 227.62 221.378 227.901 221.27C228.183 221.163 228.502 221.109 228.858 221.109ZM234.7 225.458C234.156 225.458 233.676 225.377 233.26 225.216C232.851 225.048 232.532 224.803 232.304 224.481C232.076 224.159 231.962 223.77 231.962 223.314C231.962 222.864 232.072 222.475 232.294 222.146C232.515 221.817 232.831 221.562 233.24 221.381C233.656 221.2 234.143 221.109 234.7 221.109C234.854 221.109 235.002 221.119 235.143 221.139C235.29 221.16 235.434 221.186 235.575 221.22L238.102 221.23V222.217C237.76 222.223 237.411 222.183 237.055 222.096C236.706 222.002 236.397 221.901 236.129 221.794L236.099 221.723C236.327 221.831 236.542 221.965 236.743 222.126C236.944 222.28 237.105 222.461 237.226 222.669C237.354 222.871 237.417 223.106 237.417 223.374C237.417 223.81 237.307 224.186 237.085 224.502C236.864 224.81 236.548 225.048 236.139 225.216C235.736 225.377 235.257 225.458 234.7 225.458ZM236.381 228.286V228.045C236.381 227.736 236.28 227.521 236.079 227.4C235.884 227.28 235.616 227.219 235.273 227.219H233.713C233.411 227.219 233.156 227.196 232.948 227.149C232.747 227.102 232.586 227.035 232.465 226.948C232.344 226.86 232.257 226.756 232.203 226.635C232.15 226.521 232.123 226.397 232.123 226.263C232.123 225.995 232.21 225.793 232.384 225.659C232.559 225.518 232.794 225.424 233.089 225.377C233.384 225.33 233.71 225.32 234.065 225.347L234.7 225.458C234.277 225.471 233.961 225.508 233.753 225.568C233.552 225.622 233.451 225.733 233.451 225.901C233.451 226.001 233.492 226.082 233.572 226.142C233.653 226.196 233.767 226.223 233.914 226.223H235.555C236.005 226.223 236.387 226.27 236.703 226.364C237.025 226.464 237.27 226.629 237.438 226.857C237.605 227.092 237.689 227.411 237.689 227.813V228.286H236.381ZM234.7 224.512C234.988 224.512 235.24 224.465 235.455 224.371C235.676 224.277 235.847 224.142 235.968 223.968C236.089 223.787 236.149 223.572 236.149 223.324C236.149 223.069 236.089 222.851 235.968 222.669C235.847 222.488 235.679 222.351 235.465 222.257C235.25 222.156 234.995 222.106 234.7 222.106C234.411 222.106 234.156 222.156 233.935 222.257C233.713 222.351 233.542 222.488 233.421 222.669C233.3 222.851 233.24 223.069 233.24 223.324C233.24 223.572 233.3 223.787 233.421 223.968C233.542 224.142 233.71 224.277 233.925 224.371C234.146 224.465 234.404 224.512 234.7 224.512Z" fill="#4B4B4B"/>
</g>
<defs>
<clipPath id="clip0_202_2">
<rect width="400" height="300" fill="white"/>
</clipPath>
</defs>
</svg>
