<svg width="1050" height="600" viewBox="0 0 1050 600" fill="none" xmlns="http://www.w3.org/2000/svg">
<rect width="1050" height="600" fill="#0596FF"/>
<path fill-rule="evenodd" clip-rule="evenodd" d="M383 433L383 381.315L448.847 381.315L572.813 300L448.847 218.685L383 218.685L383 167L464.239 167L667 300L464.239 433L383 433Z" fill="white"/>
<g opacity="0.6">
<path d="M449.518 527H462.238C465.278 527 467.958 527.587 470.278 528.76C472.625 529.907 474.438 531.533 475.718 533.64C477.025 535.747 477.678 538.2 477.678 541C477.678 543.8 477.025 546.253 475.718 548.36C474.438 550.467 472.625 552.107 470.278 553.28C467.958 554.427 465.278 555 462.238 555H449.518V527ZM461.918 549.68C464.718 549.68 466.945 548.907 468.598 547.36C470.278 545.787 471.118 543.667 471.118 541C471.118 538.333 470.278 536.227 468.598 534.68C466.945 533.107 464.718 532.32 461.918 532.32H455.998V549.68H461.918ZM601.376 538.4V543.6L582.336 550.84V545.84L595.656 541L582.336 536.12V531.16L601.376 538.4Z" fill="white"/>
<path d="M516.893 543.44H509.933V550.24H504.773V543.44H497.853V538.56H504.773V531.76H509.933V538.56H516.893V543.44ZM556.967 536.12L543.647 541L556.967 545.84V550.84L537.927 543.6V538.4L556.967 531.16V536.12ZM573.672 521.32H579.232L566.032 559H560.472L573.672 521.32Z" fill="#72C4FF"/>
</g>
</svg>
