<svg width="1200" height="900" viewBox="0 0 1200 900" fill="none" xmlns="http://www.w3.org/2000/svg">
<rect width="1200" height="900" fill="white"/>
<path d="M900 0H0V900L900 0Z" fill="#FFCA28"/>
<path d="M-2.71805e-05 6.10352e-05L0 621.818L621.818 621.818L-2.71805e-05 6.10352e-05Z" fill="#F57F17"/>
<path fill-rule="evenodd" clip-rule="evenodd" d="M450 449.999L0 0V622.719H277.28L450 449.999Z" fill="#FFA000"/>
<path d="M1016.83 29.25C1017.29 29.25 1017.68 29.3833 1017.98 29.65C1018.28 29.9167 1018.43 30.2667 1018.43 30.7V45.65C1018.43 46.1 1018.28 46.4583 1018 46.725C1017.72 46.9917 1017.34 47.125 1016.88 47.125C1016.41 47.125 1016.03 46.9917 1015.75 46.725C1015.47 46.4583 1015.33 46.1 1015.33 45.65V45.025C1014.96 45.7083 1014.43 46.2417 1013.73 46.625C1013.04 47.0083 1012.26 47.2 1011.38 47.2C1010.33 47.2 1009.38 46.9333 1008.55 46.4C1007.73 45.8667 1007.09 45.1167 1006.63 44.15C1006.18 43.1667 1005.95 42.0417 1005.95 40.775C1005.95 39.5083 1006.18 38.4 1006.63 37.45C1007.09 36.5 1007.73 35.7667 1008.55 35.25C1009.37 34.7333 1010.31 34.475 1011.38 34.475C1012.26 34.475 1013.04 34.6583 1013.73 35.025C1014.41 35.3917 1014.93 35.9083 1015.3 36.575V30.65C1015.3 30.2333 1015.43 29.9 1015.7 29.65C1015.98 29.3833 1016.36 29.25 1016.83 29.25ZM1012.2 44.775C1013.2 44.775 1013.97 44.4333 1014.5 43.75C1015.05 43.0667 1015.33 42.0917 1015.33 40.825C1015.33 39.5583 1015.05 38.5917 1014.5 37.925C1013.97 37.2417 1013.21 36.9 1012.23 36.9C1011.23 36.9 1010.45 37.2333 1009.9 37.9C1009.35 38.5667 1009.08 39.525 1009.08 40.775C1009.08 42.0417 1009.35 43.025 1009.9 43.725C1010.45 44.425 1011.22 44.775 1012.2 44.775ZM1026.94 34.475C1028.64 34.475 1029.9 34.9 1030.72 35.75C1031.55 36.5833 1031.97 37.8583 1031.97 39.575V45.675C1031.97 46.125 1031.83 46.4833 1031.57 46.75C1031.3 47 1030.93 47.125 1030.47 47.125C1030.03 47.125 1029.67 46.9917 1029.39 46.725C1029.12 46.4583 1028.99 46.1083 1028.99 45.675V45.125C1028.71 45.775 1028.26 46.2833 1027.64 46.65C1027.04 47.0167 1026.34 47.2 1025.54 47.2C1024.72 47.2 1023.98 47.0333 1023.32 46.7C1022.65 46.3667 1022.12 45.9083 1021.74 45.325C1021.36 44.7417 1021.17 44.0917 1021.17 43.375C1021.17 42.475 1021.39 41.7667 1021.84 41.25C1022.31 40.7333 1023.06 40.3583 1024.09 40.125C1025.12 39.8917 1026.55 39.775 1028.37 39.775H1028.99V39.2C1028.99 38.3833 1028.82 37.7917 1028.47 37.425C1028.12 37.0417 1027.55 36.85 1026.77 36.85C1026.28 36.85 1025.79 36.925 1025.29 37.075C1024.79 37.2083 1024.2 37.4083 1023.52 37.675C1023.08 37.8917 1022.77 38 1022.57 38C1022.27 38 1022.02 37.8917 1021.82 37.675C1021.63 37.4583 1021.54 37.175 1021.54 36.825C1021.54 36.5417 1021.61 36.3 1021.74 36.1C1021.89 35.8833 1022.13 35.6833 1022.47 35.5C1023.05 35.1833 1023.74 34.9333 1024.54 34.75C1025.36 34.5667 1026.16 34.475 1026.94 34.475ZM1026.17 44.95C1027 44.95 1027.67 44.675 1028.19 44.125C1028.72 43.5583 1028.99 42.8333 1028.99 41.95V41.425H1028.54C1027.42 41.425 1026.56 41.475 1025.94 41.575C1025.32 41.675 1024.88 41.85 1024.62 42.1C1024.35 42.35 1024.22 42.6917 1024.22 43.125C1024.22 43.6583 1024.4 44.1 1024.77 44.45C1025.15 44.7833 1025.62 44.95 1026.17 44.95ZM1043.67 35.425C1043.8 35.125 1043.97 34.9 1044.19 34.75C1044.42 34.6 1044.67 34.525 1044.94 34.525C1045.32 34.525 1045.67 34.6583 1045.97 34.925C1046.28 35.175 1046.44 35.4917 1046.44 35.875C1046.44 36.075 1046.39 36.275 1046.29 36.475L1041.67 46.15C1041.52 46.4667 1041.3 46.7083 1041.02 46.875C1040.75 47.0417 1040.45 47.125 1040.12 47.125C1039.8 47.125 1039.49 47.0417 1039.19 46.875C1038.91 46.7083 1038.69 46.4667 1038.54 46.15L1033.89 36.475C1033.81 36.3083 1033.77 36.1167 1033.77 35.9C1033.77 35.5167 1033.92 35.1917 1034.24 34.925C1034.57 34.6583 1034.95 34.525 1035.37 34.525C1035.97 34.525 1036.41 34.8167 1036.69 35.4L1040.19 43.125L1043.67 35.425ZM1050.27 47.15C1049.82 47.15 1049.44 47.025 1049.14 46.775C1048.86 46.5083 1048.72 46.1333 1048.72 45.65V36C1048.72 35.5167 1048.86 35.15 1049.14 34.9C1049.44 34.65 1049.82 34.525 1050.27 34.525C1050.72 34.525 1051.09 34.65 1051.39 34.9C1051.69 35.15 1051.84 35.5167 1051.84 36V45.65C1051.84 46.1333 1051.69 46.5083 1051.39 46.775C1051.09 47.025 1050.72 47.15 1050.27 47.15ZM1050.27 32.3C1049.7 32.3 1049.25 32.15 1048.92 31.85C1048.58 31.5333 1048.42 31.125 1048.42 30.625C1048.42 30.125 1048.58 29.725 1048.92 29.425C1049.25 29.125 1049.7 28.975 1050.27 28.975C1050.82 28.975 1051.26 29.125 1051.59 29.425C1051.94 29.725 1052.12 30.125 1052.12 30.625C1052.12 31.125 1051.95 31.5333 1051.62 31.85C1051.28 32.15 1050.83 32.3 1050.27 32.3ZM1065.26 29.25C1065.73 29.25 1066.11 29.3833 1066.41 29.65C1066.71 29.9167 1066.86 30.2667 1066.86 30.7V45.65C1066.86 46.1 1066.72 46.4583 1066.44 46.725C1066.15 46.9917 1065.78 47.125 1065.31 47.125C1064.85 47.125 1064.47 46.9917 1064.19 46.725C1063.9 46.4583 1063.76 46.1 1063.76 45.65V45.025C1063.4 45.7083 1062.86 46.2417 1062.16 46.625C1061.48 47.0083 1060.7 47.2 1059.81 47.2C1058.76 47.2 1057.82 46.9333 1056.99 46.4C1056.17 45.8667 1055.53 45.1167 1055.06 44.15C1054.61 43.1667 1054.39 42.0417 1054.39 40.775C1054.39 39.5083 1054.61 38.4 1055.06 37.45C1055.53 36.5 1056.17 35.7667 1056.99 35.25C1057.8 34.7333 1058.75 34.475 1059.81 34.475C1060.7 34.475 1061.48 34.6583 1062.16 35.025C1062.85 35.3917 1063.37 35.9083 1063.74 36.575V30.65C1063.74 30.2333 1063.87 29.9 1064.14 29.65C1064.42 29.3833 1064.8 29.25 1065.26 29.25ZM1060.64 44.775C1061.64 44.775 1062.4 44.4333 1062.94 43.75C1063.49 43.0667 1063.76 42.0917 1063.76 40.825C1063.76 39.5583 1063.49 38.5917 1062.94 37.925C1062.4 37.2417 1061.65 36.9 1060.66 36.9C1059.66 36.9 1058.89 37.2333 1058.34 37.9C1057.79 38.5667 1057.51 39.525 1057.51 40.775C1057.51 42.0417 1057.79 43.025 1058.34 43.725C1058.89 44.425 1059.65 44.775 1060.64 44.775ZM1074.5 47.2C1072.69 47.2 1071.22 46.8417 1070.1 46.125C1069.57 45.8083 1069.3 45.3583 1069.3 44.775C1069.3 44.4417 1069.39 44.175 1069.58 43.975C1069.76 43.7583 1069.99 43.65 1070.25 43.65C1070.54 43.65 1070.93 43.7833 1071.43 44.05C1071.96 44.3 1072.44 44.4917 1072.88 44.625C1073.33 44.7583 1073.89 44.825 1074.58 44.825C1075.28 44.825 1075.82 44.7083 1076.2 44.475C1076.6 44.2417 1076.8 43.9167 1076.8 43.5C1076.8 43.2167 1076.72 42.9917 1076.55 42.825C1076.4 42.6583 1076.12 42.5083 1075.7 42.375C1075.3 42.225 1074.69 42.0583 1073.85 41.875C1072.37 41.575 1071.3 41.15 1070.65 40.6C1070.02 40.05 1069.7 39.2917 1069.7 38.325C1069.7 37.5917 1069.92 36.9333 1070.35 36.35C1070.79 35.75 1071.38 35.2917 1072.13 34.975C1072.89 34.6417 1073.76 34.475 1074.73 34.475C1075.43 34.475 1076.1 34.5667 1076.75 34.75C1077.4 34.9167 1077.99 35.1667 1078.5 35.5C1079.04 35.8333 1079.3 36.275 1079.3 36.825C1079.3 37.1583 1079.21 37.4417 1079.03 37.675C1078.84 37.8917 1078.62 38 1078.35 38C1078.17 38 1077.99 37.9667 1077.8 37.9C1077.64 37.8167 1077.42 37.7 1077.15 37.55C1076.67 37.3 1076.25 37.1167 1075.9 37C1075.55 36.8667 1075.12 36.8 1074.6 36.8C1073.99 36.8 1073.49 36.925 1073.13 37.175C1072.78 37.425 1072.6 37.7667 1072.6 38.2C1072.6 38.6167 1072.79 38.9333 1073.15 39.15C1073.52 39.3667 1074.23 39.5833 1075.28 39.8C1076.39 40.0333 1077.27 40.3 1077.9 40.6C1078.54 40.9 1078.99 41.275 1079.25 41.725C1079.54 42.175 1079.68 42.75 1079.68 43.45C1079.68 44.5833 1079.2 45.4917 1078.25 46.175C1077.32 46.8583 1076.07 47.2 1074.5 47.2ZM1083.76 47.15C1083.31 47.15 1082.94 47.025 1082.64 46.775C1082.35 46.5083 1082.21 46.1333 1082.21 45.65V30.725C1082.21 30.2417 1082.35 29.875 1082.64 29.625C1082.94 29.375 1083.31 29.25 1083.76 29.25C1084.21 29.25 1084.59 29.375 1084.89 29.625C1085.19 29.875 1085.34 30.2417 1085.34 30.725V45.65C1085.34 46.1333 1085.19 46.5083 1084.89 46.775C1084.59 47.025 1084.21 47.15 1083.76 47.15ZM1090.11 47.15C1089.66 47.15 1089.28 47.025 1088.98 46.775C1088.7 46.5083 1088.56 46.1333 1088.56 45.65V36C1088.56 35.5167 1088.7 35.15 1088.98 34.9C1089.28 34.65 1089.66 34.525 1090.11 34.525C1090.56 34.525 1090.93 34.65 1091.23 34.9C1091.53 35.15 1091.68 35.5167 1091.68 36V45.65C1091.68 46.1333 1091.53 46.5083 1091.23 46.775C1090.93 47.025 1090.56 47.15 1090.11 47.15ZM1090.11 32.3C1089.54 32.3 1089.09 32.15 1088.76 31.85C1088.43 31.5333 1088.26 31.125 1088.26 30.625C1088.26 30.125 1088.43 29.725 1088.76 29.425C1089.09 29.125 1089.54 28.975 1090.11 28.975C1090.66 28.975 1091.1 29.125 1091.43 29.425C1091.78 29.725 1091.96 30.125 1091.96 30.625C1091.96 31.125 1091.79 31.5333 1091.46 31.85C1091.13 32.15 1090.68 32.3 1090.11 32.3ZM1102.01 34.475C1103.47 34.475 1104.57 34.8917 1105.28 35.725C1106 36.5583 1106.36 37.8167 1106.36 39.5V45.65C1106.36 46.1167 1106.22 46.4833 1105.93 46.75C1105.67 47.0167 1105.29 47.15 1104.81 47.15C1104.32 47.15 1103.94 47.0167 1103.66 46.75C1103.37 46.4833 1103.23 46.1167 1103.23 45.65V39.675C1103.23 38.725 1103.05 38.0333 1102.68 37.6C1102.33 37.1667 1101.77 36.95 1101.01 36.95C1100.11 36.95 1099.38 37.2333 1098.83 37.8C1098.3 38.3667 1098.03 39.125 1098.03 40.075V45.65C1098.03 46.1167 1097.89 46.4833 1097.61 46.75C1097.32 47.0167 1096.94 47.15 1096.46 47.15C1095.97 47.15 1095.59 47.0167 1095.31 46.75C1095.04 46.4833 1094.91 46.1167 1094.91 45.65V35.975C1094.91 35.5417 1095.05 35.1917 1095.33 34.925C1095.62 34.6583 1096 34.525 1096.48 34.525C1096.92 34.525 1097.27 34.6583 1097.53 34.925C1097.82 35.175 1097.96 35.5083 1097.96 35.925V36.6C1098.37 35.9167 1098.93 35.3917 1099.63 35.025C1100.33 34.6583 1101.12 34.475 1102.01 34.475ZM1119.88 34.525C1120.35 34.525 1120.72 34.6583 1121.01 34.925C1121.29 35.1917 1121.43 35.55 1121.43 36V45.875C1121.43 47.7917 1120.9 49.2417 1119.83 50.225C1118.76 51.2083 1117.19 51.7 1115.11 51.7C1113.29 51.7 1111.77 51.3583 1110.56 50.675C1109.94 50.3083 1109.63 49.8667 1109.63 49.35C1109.63 48.9833 1109.71 48.6917 1109.88 48.475C1110.06 48.2583 1110.3 48.15 1110.58 48.15C1110.73 48.15 1110.91 48.1833 1111.13 48.25C1111.35 48.3333 1111.57 48.425 1111.81 48.525C1112.41 48.775 1112.94 48.9667 1113.41 49.1C1113.89 49.2333 1114.44 49.3 1115.06 49.3C1117.24 49.3 1118.33 48.2333 1118.33 46.1V44.5C1117.96 45.1833 1117.43 45.7167 1116.73 46.1C1116.03 46.4667 1115.23 46.65 1114.33 46.65C1113.26 46.65 1112.31 46.4 1111.48 45.9C1110.66 45.3833 1110.02 44.6667 1109.56 43.75C1109.09 42.8333 1108.86 41.775 1108.86 40.575C1108.86 39.375 1109.08 38.3167 1109.53 37.4C1110 36.4667 1110.65 35.75 1111.48 35.25C1112.31 34.7333 1113.26 34.475 1114.33 34.475C1115.23 34.475 1116.03 34.6667 1116.73 35.05C1117.43 35.4167 1117.96 35.9417 1118.33 36.625V35.975C1118.33 35.5417 1118.47 35.1917 1118.76 34.925C1119.04 34.6583 1119.41 34.525 1119.88 34.525ZM1115.16 44.225C1116.16 44.225 1116.93 43.9 1117.48 43.25C1118.05 42.6 1118.33 41.7083 1118.33 40.575C1118.33 39.425 1118.05 38.525 1117.48 37.875C1116.93 37.225 1116.16 36.9 1115.16 36.9C1114.17 36.9 1113.4 37.225 1112.83 37.875C1112.26 38.525 1111.98 39.425 1111.98 40.575C1111.98 41.7083 1112.26 42.6 1112.83 43.25C1113.4 43.9 1114.17 44.225 1115.16 44.225ZM1126.14 47.15C1125.61 47.15 1125.17 46.975 1124.82 46.625C1124.47 46.2583 1124.29 45.8083 1124.29 45.275C1124.29 44.7417 1124.47 44.3 1124.82 43.95C1125.17 43.5833 1125.61 43.4 1126.14 43.4C1126.68 43.4 1127.12 43.5833 1127.47 43.95C1127.82 44.3 1127.99 44.7417 1127.99 45.275C1127.99 45.8083 1127.82 46.2583 1127.47 46.625C1127.12 46.975 1126.68 47.15 1126.14 47.15ZM1132.42 47.15C1131.97 47.15 1131.59 47.025 1131.29 46.775C1131.01 46.5083 1130.87 46.1333 1130.87 45.65V36C1130.87 35.5167 1131.01 35.15 1131.29 34.9C1131.59 34.65 1131.97 34.525 1132.42 34.525C1132.87 34.525 1133.24 34.65 1133.54 34.9C1133.84 35.15 1133.99 35.5167 1133.99 36V45.65C1133.99 46.1333 1133.84 46.5083 1133.54 46.775C1133.24 47.025 1132.87 47.15 1132.42 47.15ZM1132.42 32.3C1131.85 32.3 1131.4 32.15 1131.07 31.85C1130.74 31.5333 1130.57 31.125 1130.57 30.625C1130.57 30.125 1130.74 29.725 1131.07 29.425C1131.4 29.125 1131.85 28.975 1132.42 28.975C1132.97 28.975 1133.41 29.125 1133.74 29.425C1134.09 29.725 1134.27 30.125 1134.27 30.625C1134.27 31.125 1134.1 31.5333 1133.77 31.85C1133.44 32.15 1132.99 32.3 1132.42 32.3ZM1144.32 34.475C1145.78 34.475 1146.87 34.8917 1147.59 35.725C1148.31 36.5583 1148.67 37.8167 1148.67 39.5V45.65C1148.67 46.1167 1148.52 46.4833 1148.24 46.75C1147.97 47.0167 1147.6 47.15 1147.12 47.15C1146.63 47.15 1146.25 47.0167 1145.97 46.75C1145.68 46.4833 1145.54 46.1167 1145.54 45.65V39.675C1145.54 38.725 1145.36 38.0333 1144.99 37.6C1144.64 37.1667 1144.08 36.95 1143.32 36.95C1142.42 36.95 1141.69 37.2333 1141.14 37.8C1140.61 38.3667 1140.34 39.125 1140.34 40.075V45.65C1140.34 46.1167 1140.2 46.4833 1139.92 46.75C1139.63 47.0167 1139.25 47.15 1138.77 47.15C1138.28 47.15 1137.9 47.0167 1137.62 46.75C1137.35 46.4833 1137.22 46.1167 1137.22 45.65V35.975C1137.22 35.5417 1137.36 35.1917 1137.64 34.925C1137.92 34.6583 1138.31 34.525 1138.79 34.525C1139.22 34.525 1139.57 34.6583 1139.84 34.925C1140.12 35.175 1140.27 35.5083 1140.27 35.925V36.6C1140.68 35.9167 1141.24 35.3917 1141.94 35.025C1142.64 34.6583 1143.43 34.475 1144.32 34.475Z" fill="#0596FF"/>
<path fill-rule="evenodd" clip-rule="evenodd" d="M975.009 48.3982L975.008 44.8252L979.575 44.823L988.172 39.1974L979.57 33.5804L975.002 33.5827L975 30.0097L980.636 30.0069L994.706 39.1942L980.645 48.3954L975.009 48.3982Z" fill="#0596FF"/>
<path d="M980.102 549.336L971.425 557.408L963.375 541.168L967.541 531.828C968.624 529.932 970.315 529.954 971.371 531.828L980.102 549.336Z" fill="#FFA000"/>
<path d="M963.374 541.168L971.425 557.408L939 587.571L963.374 541.168Z" fill="#F57F17"/>
<path d="M989.59 536.997C991.14 535.507 992.743 536.016 993.152 538.126L1001.59 587.17L973.616 603.965C972.641 604.507 970.041 604.74 970.041 604.74C970.041 604.74 967.673 604.458 966.771 603.927L939 587.571L989.59 536.997Z" fill="#FFCA28"/>
<path d="M963.375 541.168L939.003 587.571L949.858 519.755C950.259 517.642 951.461 517.439 952.534 519.303L963.375 541.168Z" fill="#FFA000"/>
<path fill-rule="evenodd" clip-rule="evenodd" d="M1121.36 528.046C1118.71 529.02 1115.57 530.946 1112.27 533.817L1111.08 532.456L1112.27 533.817C1111.6 534.399 1110.93 535.017 1110.25 535.671C1112.67 538.273 1115.07 541.245 1117.38 544.504C1121.42 544.879 1125.25 545.487 1128.76 546.297C1128.9 545.729 1129.03 545.169 1129.14 544.619L1129.14 544.618C1130.09 540.031 1130.22 536.098 1129.72 533.132C1129.21 530.098 1128.12 528.431 1126.99 527.777C1125.92 527.162 1124.06 527.05 1121.36 528.046ZM1112.66 544.177C1111.04 542.031 1109.38 540.047 1107.72 538.256C1106.07 540.048 1104.41 542.032 1102.78 544.18C1104.42 544.103 1106.08 544.064 1107.75 544.064H1107.75C1109.41 544.064 1111.05 544.102 1112.66 544.177ZM1107.72 533.091C1108.45 532.389 1109.18 531.723 1109.9 531.095C1113.42 528.03 1116.93 525.827 1120.11 524.659C1123.23 523.513 1126.36 523.248 1128.79 524.651L1127.89 526.212L1128.79 524.651C1131.31 526.1 1132.7 529.081 1133.28 532.537C1133.87 536.062 1133.68 540.462 1132.68 545.346C1132.55 545.956 1132.41 546.575 1132.26 547.201C1133.2 547.472 1134.1 547.758 1134.98 548.059L1134.46 549.548L1134.98 548.059C1139.39 549.578 1143.06 551.522 1145.65 553.69C1148.2 555.817 1150 558.401 1150 561.209C1150 564.111 1148.11 566.808 1145.41 569.035C1142.65 571.307 1138.75 573.344 1134.01 574.913L1133.44 573.2L1134.01 574.913C1133.41 575.111 1132.8 575.3 1132.18 575.482C1132.44 576.551 1132.67 577.596 1132.87 578.612C1133.73 583.145 1133.84 587.214 1133.23 590.484C1132.63 593.7 1131.26 596.461 1128.86 597.843C1126.41 599.26 1123.18 599.042 1119.93 597.896C1116.62 596.728 1112.96 594.484 1109.3 591.289C1108.77 590.829 1108.25 590.348 1107.72 589.846C1107.2 590.348 1106.67 590.829 1106.15 591.289C1102.49 594.484 1098.82 596.728 1095.52 597.896C1092.27 599.042 1089.04 599.26 1086.58 597.843C1084.19 596.461 1082.82 593.7 1082.22 590.484C1081.61 587.214 1081.72 583.145 1082.58 578.612C1082.77 577.633 1082.99 576.627 1083.24 575.598C1082.46 575.373 1081.7 575.134 1080.96 574.882L1080.96 574.882C1076.36 573.312 1072.59 571.255 1069.92 568.973C1067.31 566.734 1065.51 564.046 1065.51 561.209C1065.51 558.443 1067.22 555.878 1069.7 553.751C1072.23 551.589 1075.81 549.652 1080.17 548.133C1081.13 547.797 1082.14 547.479 1083.18 547.18C1083.03 546.561 1082.89 545.949 1082.77 545.346C1081.76 540.462 1081.58 536.062 1082.17 532.537C1082.75 529.081 1084.14 526.1 1086.65 524.651L1087.55 526.212L1086.65 524.651C1089.09 523.248 1092.22 523.513 1095.34 524.659C1098.51 525.827 1102.03 528.03 1105.55 531.095C1106.27 531.723 1107 532.389 1107.72 533.091ZM1086.68 546.285C1086.54 545.721 1086.42 545.165 1086.31 544.619L1086.31 544.618C1085.36 540.031 1085.23 536.098 1085.73 533.132C1086.23 530.098 1087.32 528.431 1088.46 527.777C1089.52 527.162 1091.38 527.05 1094.09 528.046C1096.74 529.02 1099.88 530.946 1103.18 533.817L1104.37 532.456L1103.18 533.817C1103.85 534.399 1104.52 535.017 1105.2 535.671C1102.78 538.274 1100.38 541.247 1098.07 544.507C1094.03 544.881 1090.19 545.484 1086.68 546.285ZM1084.15 550.658C1083.18 550.936 1082.24 551.231 1081.35 551.541C1077.28 552.961 1074.14 554.706 1072.05 556.494C1069.92 558.316 1069.12 559.969 1069.12 561.209C1069.12 562.502 1069.99 564.278 1072.27 566.231C1074.5 568.141 1077.84 570.002 1082.12 571.467C1082.8 571.696 1083.49 571.914 1084.21 572.121C1085.26 568.684 1086.66 565.06 1088.34 561.382C1086.63 557.716 1085.21 554.099 1084.15 550.658ZM1090.4 557.149C1089.31 554.615 1088.39 552.138 1087.65 549.766C1090.08 549.218 1092.69 548.766 1095.43 548.424C1094.75 549.487 1094.08 550.574 1093.42 551.683L1093.41 551.682L1092.84 552.682C1091.98 554.166 1091.17 555.657 1090.4 557.149ZM1092.33 561.369C1093.35 559.242 1094.47 557.095 1095.69 554.957L1095.96 554.485C1097.28 552.207 1098.65 550.026 1100.06 547.961C1102.56 547.773 1105.13 547.674 1107.75 547.674H1107.75C1110.36 547.674 1112.91 547.771 1115.39 547.958C1116.8 550.024 1118.17 552.206 1119.48 554.485L1119.76 554.957C1120.97 557.095 1122.1 559.242 1123.12 561.369C1122.03 563.595 1120.84 565.843 1119.54 568.083C1118.24 570.353 1116.88 572.543 1115.49 574.624C1112.98 574.803 1110.39 574.895 1107.75 574.895C1105.1 574.895 1102.49 574.812 1099.97 574.645C1098.58 572.558 1097.22 570.361 1095.9 568.083C1094.61 565.843 1093.42 563.595 1092.33 561.369ZM1090.43 565.606C1089.36 568.144 1088.45 570.626 1087.72 573C1090.12 573.522 1092.69 573.935 1095.4 574.24C1094.51 572.822 1093.63 571.368 1092.78 569.887L1094.28 569.02L1092.78 569.887C1091.96 568.465 1091.17 567.035 1090.43 565.606ZM1097.96 578.115C1094 577.787 1090.21 577.248 1086.74 576.481C1086.5 577.441 1086.3 578.377 1086.13 579.285C1085.32 583.522 1085.26 587.118 1085.77 589.821C1086.28 592.577 1087.31 594.096 1088.39 594.715L1088.39 594.716C1089.51 595.361 1091.48 595.493 1094.31 594.493C1097.08 593.515 1100.36 591.553 1103.77 588.572L1103.77 588.572C1104.25 588.157 1104.72 587.721 1105.2 587.266C1102.73 584.586 1100.3 581.489 1097.96 578.115ZM1110.25 587.266C1110.73 587.721 1111.2 588.157 1111.68 588.572L1111.68 588.572C1115.09 591.553 1118.37 593.515 1121.13 594.493C1123.97 595.493 1125.94 595.361 1127.06 594.716L1127.06 594.715C1128.13 594.096 1129.17 592.577 1129.68 589.821C1130.18 587.118 1130.13 583.522 1129.32 579.285C1129.14 578.346 1128.93 577.376 1128.68 576.381C1125.23 577.164 1121.46 577.733 1117.51 578.083C1115.17 581.47 1112.73 584.577 1110.25 587.266ZM1131.2 572.006C1131.77 571.84 1132.33 571.667 1132.88 571.486C1137.32 570.013 1140.79 568.16 1143.12 566.249C1145.49 564.294 1146.39 562.517 1146.39 561.209C1146.39 559.977 1145.56 558.311 1143.34 556.462C1141.18 554.654 1137.94 552.895 1133.8 551.472C1133 551.194 1132.16 550.93 1131.29 550.679C1130.23 554.114 1128.81 557.724 1127.11 561.382C1128.77 565.02 1130.15 568.604 1131.2 572.006ZM1125.02 565.606C1126.07 568.109 1126.97 570.558 1127.7 572.902C1125.32 573.435 1122.76 573.865 1120.08 574.187C1120.96 572.786 1121.83 571.349 1122.67 569.887C1123.49 568.465 1124.28 567.035 1125.02 565.606ZM1125.05 557.149C1126.13 554.619 1127.05 552.146 1127.79 549.778C1125.36 549.223 1122.76 548.767 1120.02 548.423C1120.7 549.486 1121.37 550.574 1122.03 551.683L1122.04 551.682L1122.61 552.682C1123.47 554.166 1124.28 555.657 1125.05 557.149ZM1107.72 584.68C1106 582.801 1104.29 580.691 1102.6 578.4C1104.3 578.47 1106.02 578.504 1107.75 578.504C1109.47 578.504 1111.17 578.467 1112.85 578.392C1111.17 580.685 1109.45 582.798 1107.72 584.68ZM1115.3 561.209C1115.3 565.376 1111.92 568.754 1107.75 568.754C1103.59 568.754 1100.21 565.376 1100.21 561.209C1100.21 557.042 1103.59 553.664 1107.75 553.664C1111.92 553.664 1115.3 557.042 1115.3 561.209Z" fill="#00D8FF"/>
<path d="M1043.46 560.16C1043.79 560.16 1044.06 560.272 1044.29 560.496C1044.51 560.7 1044.62 560.965 1044.62 561.291C1044.62 561.617 1044.51 561.892 1044.29 562.116C1044.06 562.32 1043.79 562.422 1043.46 562.422H1038.29V567.588C1038.29 567.914 1038.18 568.189 1037.96 568.414C1037.75 568.638 1037.49 568.75 1037.16 568.75C1036.84 568.75 1036.56 568.638 1036.34 568.414C1036.13 568.189 1036.03 567.914 1036.03 567.588V562.422H1030.87C1030.54 562.422 1030.26 562.31 1030.04 562.086C1029.82 561.861 1029.7 561.596 1029.7 561.291C1029.7 560.965 1029.82 560.7 1030.04 560.496C1030.26 560.272 1030.54 560.16 1030.87 560.16H1036.03V554.993C1036.03 554.667 1036.13 554.392 1036.34 554.168C1036.56 553.944 1036.84 553.832 1037.16 553.832C1037.49 553.832 1037.75 553.944 1037.96 554.168C1038.18 554.392 1038.29 554.667 1038.29 554.993V560.16H1043.46Z" fill="#BEBEBE"/>
<path d="M524.334 701.22V730.095H562.344V736.815H524.334V768H516.564V694.5H566.964V701.22H524.334ZM581.434 690.09H588.889V768H581.434V690.09ZM628.952 712.35C636.162 712.35 641.692 714.17 645.542 717.81C649.392 721.38 651.317 726.7 651.317 733.77V768H644.177V759.39C642.497 762.26 640.012 764.5 636.722 766.11C633.502 767.72 629.652 768.525 625.172 768.525C619.012 768.525 614.112 767.055 610.472 764.115C606.832 761.175 605.012 757.29 605.012 752.46C605.012 747.77 606.692 743.99 610.052 741.12C613.482 738.25 618.907 736.815 626.327 736.815H643.862V733.455C643.862 728.695 642.532 725.09 639.872 722.64C637.212 720.12 633.327 718.86 628.217 718.86C624.717 718.86 621.357 719.455 618.137 720.645C614.917 721.765 612.152 723.34 609.842 725.37L606.482 719.805C609.282 717.425 612.642 715.605 616.562 714.345C620.482 713.015 624.612 712.35 628.952 712.35ZM626.327 762.645C630.527 762.645 634.132 761.7 637.142 759.81C640.152 757.85 642.392 755.05 643.862 751.41V742.38H626.537C617.087 742.38 612.362 745.67 612.362 752.25C612.362 755.47 613.587 758.025 616.037 759.915C618.487 761.735 621.917 762.645 626.327 762.645ZM740.446 712.35C747.376 712.35 752.801 714.345 756.721 718.335C760.711 722.325 762.706 728.205 762.706 735.975V768H755.251V736.71C755.251 730.97 753.851 726.595 751.051 723.585C748.321 720.575 744.436 719.07 739.396 719.07C733.656 719.07 729.141 720.855 725.851 724.425C722.561 727.925 720.916 732.79 720.916 739.02V768H713.461V736.71C713.461 730.97 712.061 726.595 709.261 723.585C706.531 720.575 702.611 719.07 697.501 719.07C691.831 719.07 687.316 720.855 683.956 724.425C680.666 727.925 679.021 732.79 679.021 739.02V768H671.566V712.77H678.706V722.85C680.666 719.49 683.396 716.9 686.896 715.08C690.396 713.26 694.421 712.35 698.971 712.35C703.591 712.35 707.581 713.33 710.941 715.29C714.371 717.25 716.926 720.155 718.606 724.005C720.636 720.365 723.541 717.53 727.321 715.5C731.171 713.4 735.546 712.35 740.446 712.35ZM831.218 742.695H785.018C785.438 748.435 787.643 753.09 791.633 756.66C795.623 760.16 800.663 761.91 806.753 761.91C810.183 761.91 813.333 761.315 816.203 760.125C819.073 758.865 821.558 757.045 823.658 754.665L827.858 759.495C825.408 762.435 822.328 764.675 818.618 766.215C814.978 767.755 810.953 768.525 806.543 768.525C800.873 768.525 795.833 767.335 791.423 764.955C787.083 762.505 783.688 759.145 781.238 754.875C778.788 750.605 777.563 745.775 777.563 740.385C777.563 734.995 778.718 730.165 781.028 725.895C783.408 721.625 786.628 718.3 790.688 715.92C794.818 713.54 799.438 712.35 804.548 712.35C809.658 712.35 814.243 713.54 818.303 715.92C822.363 718.3 825.548 721.625 827.858 725.895C830.168 730.095 831.323 734.925 831.323 740.385L831.218 742.695ZM804.548 718.755C799.228 718.755 794.748 720.47 791.108 723.9C787.538 727.26 785.508 731.67 785.018 737.13H824.183C823.693 731.67 821.628 727.26 817.988 723.9C814.418 720.47 809.938 718.755 804.548 718.755ZM921.858 730.095C926.688 731.145 930.398 733.245 932.988 736.395C935.648 739.475 936.978 743.465 936.978 748.365C936.978 754.665 934.633 759.53 929.943 762.96C925.323 766.32 918.463 768 909.363 768H875.553V694.5H907.263C915.453 694.5 921.788 696.145 926.268 699.435C930.818 702.725 933.093 707.38 933.093 713.4C933.093 717.46 932.078 720.925 930.048 723.795C928.088 726.595 925.358 728.695 921.858 730.095ZM883.323 700.905V727.575H906.738C912.688 727.575 917.273 726.455 920.493 724.215C923.713 721.905 925.323 718.58 925.323 714.24C925.323 709.9 923.713 706.61 920.493 704.37C917.273 702.06 912.688 700.905 906.738 700.905H883.323ZM909.258 761.595C915.838 761.595 920.808 760.475 924.168 758.235C927.528 755.995 929.208 752.495 929.208 747.735C929.208 738.565 922.558 733.98 909.258 733.98H883.323V761.595H909.258ZM975.713 768.525C970.393 768.525 965.598 767.335 961.328 764.955C957.058 762.505 953.698 759.145 951.248 754.875C948.798 750.605 947.573 745.775 947.573 740.385C947.573 734.995 948.798 730.165 951.248 725.895C953.698 721.625 957.058 718.3 961.328 715.92C965.598 713.54 970.393 712.35 975.713 712.35C981.033 712.35 985.828 713.54 990.098 715.92C994.368 718.3 997.693 721.625 1000.07 725.895C1002.52 730.165 1003.75 734.995 1003.75 740.385C1003.75 745.775 1002.52 750.605 1000.07 754.875C997.693 759.145 994.368 762.505 990.098 764.955C985.828 767.335 981.033 768.525 975.713 768.525ZM975.713 761.91C979.633 761.91 983.133 761.035 986.213 759.285C989.363 757.465 991.813 754.91 993.563 751.62C995.313 748.33 996.188 744.585 996.188 740.385C996.188 736.185 995.313 732.44 993.563 729.15C991.813 725.86 989.363 723.34 986.213 721.59C983.133 719.77 979.633 718.86 975.713 718.86C971.793 718.86 968.258 719.77 965.108 721.59C962.028 723.34 959.578 725.86 957.758 729.15C956.008 732.44 955.133 736.185 955.133 740.385C955.133 744.585 956.008 748.33 957.758 751.62C959.578 754.91 962.028 757.465 965.108 759.285C968.258 761.035 971.793 761.91 975.713 761.91ZM1047.11 712.35C1054.04 712.35 1059.53 714.38 1063.59 718.44C1067.72 722.43 1069.79 728.275 1069.79 735.975V768H1062.33V736.71C1062.33 730.97 1060.9 726.595 1058.03 723.585C1055.16 720.575 1051.06 719.07 1045.74 719.07C1039.79 719.07 1035.07 720.855 1031.57 724.425C1028.14 727.925 1026.42 732.79 1026.42 739.02V768H1018.97V712.77H1026.11V722.955C1028.14 719.595 1030.94 717.005 1034.51 715.185C1038.15 713.295 1042.35 712.35 1047.11 712.35ZM1140.63 690.09V768H1133.49V757.08C1131.25 760.79 1128.28 763.625 1124.57 765.585C1120.93 767.545 1116.8 768.525 1112.18 768.525C1107 768.525 1102.31 767.335 1098.11 764.955C1093.91 762.575 1090.62 759.25 1088.24 754.98C1085.86 750.71 1084.67 745.845 1084.67 740.385C1084.67 734.925 1085.86 730.06 1088.24 725.79C1090.62 721.52 1093.91 718.23 1098.11 715.92C1102.31 713.54 1107 712.35 1112.18 712.35C1116.66 712.35 1120.68 713.295 1124.25 715.185C1127.89 717.005 1130.87 719.7 1133.18 723.27V690.09H1140.63ZM1112.81 761.91C1116.66 761.91 1120.12 761.035 1123.2 759.285C1126.35 757.465 1128.8 754.91 1130.55 751.62C1132.37 748.33 1133.28 744.585 1133.28 740.385C1133.28 736.185 1132.37 732.44 1130.55 729.15C1128.8 725.86 1126.35 723.34 1123.2 721.59C1120.12 719.77 1116.66 718.86 1112.81 718.86C1108.89 718.86 1105.35 719.77 1102.2 721.59C1099.12 723.34 1096.67 725.86 1094.85 729.15C1093.1 732.44 1092.23 736.185 1092.23 740.385C1092.23 744.585 1093.1 748.33 1094.85 751.62C1096.67 754.91 1099.12 757.465 1102.2 759.285C1105.35 761.035 1108.89 761.91 1112.81 761.91Z" fill="black"/>
<path d="M390.552 836.35C388.078 836.35 385.838 835.813 383.832 834.74C381.848 833.643 380.285 832.138 379.142 830.225C378.022 828.312 377.462 826.153 377.462 823.75C377.462 821.347 378.033 819.188 379.177 817.275C380.32 815.362 381.883 813.868 383.867 812.795C385.873 811.698 388.113 811.15 390.587 811.15C392.593 811.15 394.425 811.5 396.082 812.2C397.738 812.9 399.138 813.915 400.282 815.245L397.342 818.01C395.568 816.097 393.387 815.14 390.797 815.14C389.117 815.14 387.612 815.513 386.282 816.26C384.952 816.983 383.913 817.998 383.167 819.305C382.42 820.612 382.047 822.093 382.047 823.75C382.047 825.407 382.42 826.888 383.167 828.195C383.913 829.502 384.952 830.528 386.282 831.275C387.612 831.998 389.117 832.36 390.797 832.36C393.387 832.36 395.568 831.392 397.342 829.455L400.282 832.255C399.138 833.585 397.727 834.6 396.047 835.3C394.39 836 392.558 836.35 390.552 836.35ZM422.399 836.35C419.902 836.35 417.65 835.813 415.644 834.74C413.637 833.643 412.062 832.138 410.919 830.225C409.775 828.288 409.204 826.13 409.204 823.75C409.204 821.37 409.775 819.223 410.919 817.31C412.062 815.373 413.637 813.868 415.644 812.795C417.65 811.698 419.902 811.15 422.399 811.15C424.895 811.15 427.147 811.698 429.154 812.795C431.16 813.868 432.735 815.362 433.879 817.275C435.022 819.188 435.594 821.347 435.594 823.75C435.594 826.153 435.022 828.312 433.879 830.225C432.735 832.138 431.16 833.643 429.154 834.74C427.147 835.813 424.895 836.35 422.399 836.35ZM422.399 832.36C424.032 832.36 425.502 831.998 426.809 831.275C428.115 830.528 429.142 829.502 429.889 828.195C430.635 826.865 431.009 825.383 431.009 823.75C431.009 822.117 430.635 820.647 429.889 819.34C429.142 818.01 428.115 816.983 426.809 816.26C425.502 815.513 424.032 815.14 422.399 815.14C420.765 815.14 419.295 815.513 417.989 816.26C416.682 816.983 415.655 818.01 414.909 819.34C414.162 820.647 413.789 822.117 413.789 823.75C413.789 825.383 414.162 826.865 414.909 828.195C415.655 829.502 416.682 830.528 417.989 831.275C419.295 831.998 420.765 832.36 422.399 832.36ZM469.012 811.5V836H465.267L451.757 819.41V836H447.242V811.5H450.987L464.497 828.09V811.5H469.012ZM487.372 815.35H479.252V811.5H500.042V815.35H491.922V836H487.372V815.35ZM528.656 832.185V836H510.281V811.5H528.166V815.315H514.831V821.685H526.661V825.43H514.831V832.185H528.656ZM562.323 811.5V836H558.578L545.068 819.41V836H540.553V811.5H544.298L557.808 828.09V811.5H562.323ZM580.683 815.35H572.563V811.5H593.353V815.35H585.233V836H580.683V815.35ZM642.596 836L642.561 819.76L634.511 833.2H632.481L624.431 819.97V836H620.091V811.5H623.836L633.566 827.74L643.121 811.5H646.866L646.901 836H642.596ZM676.234 830.33H663.984L661.569 836H656.879L667.904 811.5H672.384L683.444 836H678.684L676.234 830.33ZM674.729 826.76L670.109 816.05L665.524 826.76H674.729ZM715.155 811.5V836H711.41L697.9 819.41V836H693.385V811.5H697.13L710.64 828.09V811.5H715.155ZM744.435 830.33H732.185L729.77 836H725.08L736.105 811.5H740.585L751.645 836H746.885L744.435 830.33ZM742.93 826.76L738.31 816.05L733.725 826.76H742.93ZM777.974 823.47H782.279V833.235C781.019 834.238 779.549 835.008 777.869 835.545C776.189 836.082 774.462 836.35 772.689 836.35C770.192 836.35 767.94 835.813 765.934 834.74C763.927 833.643 762.352 832.138 761.209 830.225C760.065 828.312 759.494 826.153 759.494 823.75C759.494 821.347 760.065 819.188 761.209 817.275C762.352 815.362 763.927 813.868 765.934 812.795C767.964 811.698 770.239 811.15 772.759 811.15C774.812 811.15 776.679 811.488 778.359 812.165C780.039 812.842 781.45 813.833 782.594 815.14L779.724 817.94C777.857 816.073 775.605 815.14 772.969 815.14C771.242 815.14 769.702 815.502 768.349 816.225C767.019 816.948 765.969 817.963 765.199 819.27C764.452 820.577 764.079 822.07 764.079 823.75C764.079 825.383 764.452 826.853 765.199 828.16C765.969 829.467 767.019 830.493 768.349 831.24C769.702 831.987 771.23 832.36 772.934 832.36C774.847 832.36 776.527 831.94 777.974 831.1V823.47ZM813.48 832.185V836H795.105V811.5H812.99V815.315H799.655V821.685H811.485V825.43H799.655V832.185H813.48ZM847.882 836L847.847 819.76L839.797 833.2H837.767L829.717 819.97V836H825.377V811.5H829.122L838.852 827.74L848.407 811.5H852.152L852.187 836H847.882ZM884.005 832.185V836H865.63V811.5H883.515V815.315H870.18V821.685H882.01V825.43H870.18V832.185H884.005ZM917.672 811.5V836H913.927L900.417 819.41V836H895.902V811.5H899.647L913.157 828.09V811.5H917.672ZM936.032 815.35H927.912V811.5H948.702V815.35H940.582V836H936.032V815.35ZM983.034 836.35C981.144 836.35 979.313 836.082 977.539 835.545C975.789 835.008 974.401 834.297 973.374 833.41L974.949 829.875C975.953 830.668 977.178 831.322 978.624 831.835C980.094 832.325 981.564 832.57 983.034 832.57C984.854 832.57 986.208 832.278 987.094 831.695C988.004 831.112 988.459 830.342 988.459 829.385C988.459 828.685 988.203 828.113 987.689 827.67C987.199 827.203 986.569 826.842 985.799 826.585C985.029 826.328 983.979 826.037 982.649 825.71C980.783 825.267 979.266 824.823 978.099 824.38C976.956 823.937 975.964 823.248 975.124 822.315C974.308 821.358 973.899 820.075 973.899 818.465C973.899 817.112 974.261 815.887 974.984 814.79C975.731 813.67 976.839 812.783 978.309 812.13C979.803 811.477 981.623 811.15 983.769 811.15C985.263 811.15 986.733 811.337 988.179 811.71C989.626 812.083 990.874 812.62 991.924 813.32L990.489 816.855C989.416 816.225 988.296 815.747 987.129 815.42C985.963 815.093 984.831 814.93 983.734 814.93C981.938 814.93 980.596 815.233 979.709 815.84C978.846 816.447 978.414 817.252 978.414 818.255C978.414 818.955 978.659 819.527 979.149 819.97C979.663 820.413 980.304 820.763 981.074 821.02C981.844 821.277 982.894 821.568 984.224 821.895C986.044 822.315 987.538 822.758 988.704 823.225C989.871 823.668 990.863 824.357 991.679 825.29C992.519 826.223 992.939 827.483 992.939 829.07C992.939 830.423 992.566 831.648 991.819 832.745C991.096 833.842 989.988 834.717 988.494 835.37C987.001 836.023 985.181 836.35 983.034 836.35ZM1014.33 827.355V836H1009.78V827.425L1000.16 811.5H1005.02L1012.2 823.435L1019.44 811.5H1023.92L1014.33 827.355ZM1040.81 836.35C1038.92 836.35 1037.09 836.082 1035.32 835.545C1033.57 835.008 1032.18 834.297 1031.15 833.41L1032.73 829.875C1033.73 830.668 1034.95 831.322 1036.4 831.835C1037.87 832.325 1039.34 832.57 1040.81 832.57C1042.63 832.57 1043.98 832.278 1044.87 831.695C1045.78 831.112 1046.24 830.342 1046.24 829.385C1046.24 828.685 1045.98 828.113 1045.47 827.67C1044.98 827.203 1044.35 826.842 1043.58 826.585C1042.81 826.328 1041.76 826.037 1040.43 825.71C1038.56 825.267 1037.04 824.823 1035.88 824.38C1034.73 823.937 1033.74 823.248 1032.9 822.315C1032.08 821.358 1031.68 820.075 1031.68 818.465C1031.68 817.112 1032.04 815.887 1032.76 814.79C1033.51 813.67 1034.62 812.783 1036.09 812.13C1037.58 811.477 1039.4 811.15 1041.55 811.15C1043.04 811.15 1044.51 811.337 1045.96 811.71C1047.4 812.083 1048.65 812.62 1049.7 813.32L1048.27 816.855C1047.19 816.225 1046.07 815.747 1044.91 815.42C1043.74 815.093 1042.61 814.93 1041.51 814.93C1039.71 814.93 1038.37 815.233 1037.49 815.84C1036.62 816.447 1036.19 817.252 1036.19 818.255C1036.19 818.955 1036.44 819.527 1036.93 819.97C1037.44 820.413 1038.08 820.763 1038.85 821.02C1039.62 821.277 1040.67 821.568 1042 821.895C1043.82 822.315 1045.31 822.758 1046.48 823.225C1047.65 823.668 1048.64 824.357 1049.46 825.29C1050.3 826.223 1050.72 827.483 1050.72 829.07C1050.72 830.423 1050.34 831.648 1049.6 832.745C1048.87 833.842 1047.76 834.717 1046.27 835.37C1044.78 836.023 1042.96 836.35 1040.81 836.35ZM1066.68 815.35H1058.56V811.5H1079.35V815.35H1071.23V836H1066.68V815.35ZM1107.96 832.185V836H1089.59V811.5H1107.47V815.315H1094.14V821.685H1105.97V825.43H1094.14V832.185H1107.96ZM1142.37 836L1142.33 819.76L1134.28 833.2H1132.25L1124.2 819.97V836H1119.86V811.5H1123.61L1133.34 827.74L1142.89 811.5H1146.64L1146.67 836H1142.37Z" fill="#919191"/>
</svg>
