<svg width="1890" height="1091" viewBox="0 0 1890 1091" fill="none" xmlns="http://www.w3.org/2000/svg">
<rect width="1890" height="1091" fill="white"/>
<path d="M1223 268H667V824L1223 268Z" fill="#FFCA28"/>
<path d="M667 268L667 652.146L1051.15 652.145L667 268Z" fill="#F57F17"/>
<path fill-rule="evenodd" clip-rule="evenodd" d="M945 546L667 268V652.702H838.297L945 546Z" fill="#FFA000"/>
<path d="M881.102 956.308L872.425 964.38L864.375 948.141L868.541 938.801C869.624 936.905 871.315 936.926 872.371 938.801L881.102 956.308Z" fill="#FFA000"/>
<path d="M864.374 948.141L872.425 964.38L840 994.543L864.374 948.141Z" fill="#F57F17"/>
<path d="M890.59 943.969C892.14 942.479 893.743 942.989 894.152 945.099L902.593 994.143L874.616 1010.94C873.641 1011.48 871.041 1011.71 871.041 1011.71C871.041 1011.71 868.673 1011.43 867.771 1010.9L840 994.543L890.59 943.969Z" fill="#FFCA28"/>
<path d="M864.375 948.141L840.004 994.543L850.858 926.728C851.259 924.615 852.462 924.411 853.534 926.275L864.375 948.141Z" fill="#FFA000"/>
<path fill-rule="evenodd" clip-rule="evenodd" d="M1022.36 935.019C1019.71 935.993 1016.57 937.919 1013.27 940.79L1012.08 939.429L1013.27 940.79C1012.6 941.371 1011.93 941.99 1011.25 942.643C1013.67 945.246 1016.07 948.218 1018.38 951.476C1022.42 951.852 1026.25 952.46 1029.76 953.27C1029.9 952.702 1030.03 952.142 1030.14 951.591L1030.14 951.591C1031.09 947.003 1031.22 943.07 1030.72 940.105C1030.21 937.071 1029.12 935.403 1027.99 934.75C1026.92 934.135 1025.06 934.023 1022.36 935.019ZM1013.66 951.15C1012.04 949.003 1010.38 947.02 1008.72 945.229C1007.07 947.021 1005.41 949.005 1003.78 951.152C1005.42 951.076 1007.08 951.037 1008.75 951.037H1008.75C1010.41 951.037 1012.05 951.075 1013.66 951.15ZM1008.72 940.064C1009.45 939.362 1010.18 938.695 1010.9 938.067C1014.42 935.003 1017.93 932.799 1021.11 931.631C1024.23 930.486 1027.36 930.221 1029.79 931.623L1028.89 933.185L1029.79 931.623C1032.31 933.073 1033.7 936.054 1034.28 939.51C1034.87 943.035 1034.68 947.434 1033.68 952.319C1033.55 952.929 1033.41 953.547 1033.26 954.174C1034.2 954.444 1035.1 954.73 1035.98 955.031L1035.46 956.521L1035.98 955.031C1040.39 956.551 1044.06 958.494 1046.65 960.663C1049.2 962.79 1051 965.374 1051 968.182C1051 971.083 1049.11 973.781 1046.41 976.008C1043.65 978.28 1039.75 980.317 1035.01 981.885L1034.44 980.172L1035.01 981.885C1034.41 982.083 1033.8 982.273 1033.18 982.455C1033.44 983.524 1033.67 984.569 1033.87 985.585C1034.73 990.118 1034.84 994.187 1034.23 997.456C1033.63 1000.67 1032.26 1003.43 1029.86 1004.82C1027.41 1006.23 1024.18 1006.01 1020.93 1004.87C1017.62 1003.7 1013.96 1001.46 1010.3 998.262C1009.77 997.802 1009.25 997.32 1008.72 996.818C1008.2 997.32 1007.67 997.802 1007.15 998.262C1003.49 1001.46 999.823 1003.7 996.515 1004.87C993.271 1006.01 990.042 1006.23 987.585 1004.82C985.188 1003.43 983.82 1000.67 983.219 997.456C982.609 994.187 982.719 990.118 983.579 985.585C983.765 984.605 983.987 983.599 984.242 982.57C983.459 982.346 982.696 982.107 981.957 981.855L981.957 981.854C977.363 980.284 973.587 978.227 970.923 975.945C968.309 973.707 966.508 971.018 966.508 968.182C966.508 965.415 968.216 962.851 970.702 960.724C973.229 958.562 976.809 956.624 981.165 955.105C982.13 954.769 983.137 954.451 984.183 954.152C984.032 953.533 983.894 952.922 983.77 952.319C982.763 947.434 982.578 943.035 983.167 939.51C983.745 936.054 985.14 933.073 987.654 931.623L988.554 933.185L987.654 931.623C990.086 930.221 993.222 930.486 996.338 931.631C999.515 932.799 1003.03 935.003 1006.55 938.067C1007.27 938.695 1008 939.362 1008.72 940.064ZM987.68 953.258C987.543 952.694 987.418 952.138 987.305 951.591L987.305 951.591C986.36 947.003 986.231 943.07 986.727 940.105C987.234 937.071 988.324 935.403 989.457 934.75C990.524 934.135 992.383 934.023 995.092 935.019C997.74 935.993 1000.88 937.919 1004.18 940.79L1005.37 939.429L1004.18 940.79C1004.85 941.371 1005.52 941.99 1006.2 942.643C1003.78 945.247 1001.38 948.22 999.066 951.48C995.032 951.853 991.191 952.456 987.68 953.258ZM985.148 957.631C984.177 957.908 983.244 958.203 982.354 958.514C978.282 959.933 975.138 961.679 973.048 963.466C970.918 965.289 970.117 966.941 970.117 968.182C970.117 969.474 970.99 971.251 973.27 973.204C975.5 975.113 978.838 976.974 983.125 978.439C983.797 978.669 984.493 978.887 985.21 979.093C986.264 975.656 987.655 972.033 989.34 968.355C987.63 964.689 986.21 961.072 985.148 957.631ZM991.399 964.121C990.313 961.587 989.39 959.11 988.65 956.739C991.08 956.19 993.689 955.738 996.427 955.396C995.745 956.46 995.076 957.547 994.42 958.655L994.412 958.654L993.835 959.654C992.98 961.138 992.167 962.63 991.399 964.121ZM993.332 968.342C994.351 966.215 995.473 964.068 996.691 961.929L996.964 961.457C998.277 959.18 999.65 956.999 1001.06 954.934C1003.56 954.745 1006.13 954.646 1008.75 954.646H1008.75C1011.36 954.646 1013.91 954.744 1016.38 954.931C1017.8 956.996 1019.17 959.179 1020.48 961.457L1020.76 961.929C1021.97 964.068 1023.1 966.215 1024.11 968.342C1023.03 970.567 1021.84 972.816 1020.54 975.056C1019.24 977.326 1017.88 979.516 1016.49 981.596C1013.98 981.776 1011.39 981.867 1008.75 981.867C1006.1 981.867 1003.49 981.784 1000.97 981.617C999.577 979.531 998.216 977.334 996.903 975.056C995.611 972.816 994.416 970.567 993.332 968.342ZM991.426 972.579C990.359 975.117 989.451 977.598 988.716 979.972C991.115 980.495 993.694 980.907 996.403 981.212C995.507 979.794 994.63 978.34 993.776 976.859L995.279 975.993L993.776 976.859C992.956 975.437 992.171 974.008 991.426 972.579ZM998.964 985.088C994.996 984.76 991.21 984.221 987.742 983.454C987.504 984.414 987.298 985.35 987.126 986.258C986.321 990.495 986.262 994.091 986.767 996.794C987.282 999.55 988.313 1001.07 989.387 1001.69L989.387 1001.69C990.507 1002.33 992.482 1002.47 995.313 1001.47C998.081 1000.49 1001.36 998.525 1004.77 995.544L1004.77 995.544C1005.25 995.129 1005.72 994.694 1006.2 994.239C1003.73 991.558 1001.3 988.462 998.964 985.088ZM1011.25 994.239C1011.73 994.694 1012.2 995.129 1012.68 995.544L1012.68 995.544C1016.09 998.525 1019.37 1000.49 1022.13 1001.47C1024.97 1002.47 1026.94 1002.33 1028.06 1001.69L1028.06 1001.69C1029.13 1001.07 1030.17 999.55 1030.68 996.794C1031.18 994.091 1031.13 990.495 1030.32 986.258C1030.14 985.318 1029.93 984.349 1029.68 983.354C1026.23 984.137 1022.46 984.705 1018.51 985.056C1016.17 988.442 1013.73 991.55 1011.25 994.239ZM1032.2 978.979C1032.77 978.812 1033.33 978.639 1033.88 978.459C1038.32 976.986 1041.79 975.132 1044.12 973.221C1046.49 971.266 1047.39 969.489 1047.39 968.182C1047.39 966.95 1046.56 965.283 1044.34 963.434C1042.18 961.627 1038.94 959.868 1034.8 958.444C1034 958.167 1033.16 957.903 1032.29 957.652C1031.23 961.087 1029.81 964.696 1028.11 968.355C1029.77 971.992 1031.15 975.576 1032.2 978.979ZM1026.02 972.579C1027.07 975.082 1027.97 977.53 1028.7 979.875C1026.32 980.407 1023.76 980.837 1021.08 981.159C1021.96 979.758 1022.83 978.322 1023.67 976.859C1024.49 975.437 1025.28 974.008 1026.02 972.579ZM1026.05 964.121C1027.13 961.591 1028.05 959.118 1028.79 956.75C1026.36 956.196 1023.76 955.739 1021.02 955.395C1021.7 956.459 1022.37 957.546 1023.03 958.655L1023.04 958.654L1023.61 959.654C1024.47 961.138 1025.28 962.63 1026.05 964.121ZM1008.72 991.653C1007 989.773 1005.29 987.663 1003.6 985.372C1005.3 985.442 1007.02 985.477 1008.75 985.477C1010.47 985.477 1012.17 985.439 1013.85 985.364C1012.17 987.658 1010.45 989.771 1008.72 991.653ZM1016.3 968.182C1016.3 972.348 1012.92 975.726 1008.75 975.726C1004.59 975.726 1001.21 972.348 1001.21 968.182C1001.21 964.015 1004.59 960.637 1008.75 960.637C1012.92 960.637 1016.3 964.015 1016.3 968.182Z" fill="#00D8FF"/>
<path d="M944.46 967.132C944.786 967.132 945.062 967.244 945.286 967.468C945.51 967.672 945.622 967.937 945.622 968.263C945.622 968.589 945.51 968.864 945.286 969.089C945.062 969.292 944.786 969.394 944.46 969.394H939.294V974.561C939.294 974.887 939.182 975.162 938.958 975.386C938.754 975.61 938.489 975.722 938.163 975.722C937.837 975.722 937.562 975.61 937.337 975.386C937.134 975.162 937.032 974.887 937.032 974.561V969.394H931.865C931.539 969.394 931.264 969.282 931.04 969.058C930.816 968.834 930.704 968.569 930.704 968.263C930.704 967.937 930.816 967.672 931.04 967.468C931.264 967.244 931.539 967.132 931.865 967.132H937.032V961.966C937.032 961.64 937.134 961.364 937.337 961.14C937.562 960.916 937.837 960.804 938.163 960.804C938.489 960.804 938.754 960.916 938.958 961.14C939.182 961.364 939.294 961.64 939.294 961.966V967.132H944.46Z" fill="#BEBEBE"/>
</svg>
