<svg width="46" height="44" viewBox="0 0 46 44" fill="none" xmlns="http://www.w3.org/2000/svg">
<path d="M23 0C10.3002 0 0 10.0995 0 22.5562C0 32.5222 6.5895 40.977 15.7301 43.9601C16.8782 44.1687 17.25 43.4695 17.25 42.8755V38.6763C10.8522 40.041 9.52008 36.0147 9.52008 36.0147C8.47358 33.4076 6.96517 32.714 6.96517 32.714C4.87792 31.3136 7.12425 31.3437 7.12425 31.3437C9.43383 31.5016 10.649 33.6688 10.649 33.6688C12.6998 37.1162 16.0291 36.1199 17.342 35.5429C17.5471 34.0861 18.1432 33.0899 18.8025 32.5279C13.6946 31.9546 8.32408 30.0204 8.32408 21.3795C8.32408 18.9152 9.223 16.904 10.6931 15.325C10.4554 14.7555 9.66767 12.4604 10.9173 9.35517C10.9173 9.35517 12.8493 8.74991 17.2442 11.6672C19.0785 11.1672 21.045 10.9172 23 10.9078C24.955 10.9172 26.9234 11.1672 28.7615 11.6672C33.1526 8.74991 35.0807 9.35517 35.0807 9.35517C36.3323 12.4623 35.5446 14.7574 35.3069 15.325C36.7827 16.904 37.674 18.9171 37.674 21.3795C37.674 30.0429 32.2939 31.9508 27.1726 32.5091C27.9967 33.2083 28.75 34.5805 28.75 36.6857V42.8755C28.75 43.4751 29.118 44.18 30.2852 43.9582C39.4182 40.9714 46 32.5185 46 22.5562C46 10.0995 35.7017 0 23 0Z" fill="black"/>
</svg>
