<svg width="400" height="300" viewBox="0 0 400 300" fill="none" xmlns="http://www.w3.org/2000/svg">
<rect width="400" height="300" fill="white"/>
<g filter="url(#filter0_d)">
<circle cx="200.103" cy="150.103" r="77.897" fill="white"/>
</g>
<path fill-rule="evenodd" clip-rule="evenodd" d="M200.22 119.899V125.463H175.463V150.22L169.899 150.22L169.899 119.899H200.22Z" fill="#9C9C9C"/>
<path fill-rule="evenodd" clip-rule="evenodd" d="M200.22 180.541L200.22 174.977L224.977 174.977L224.977 150.22L230.541 150.22L230.541 180.541L200.22 180.541Z" fill="#9C9C9C"/>
<path fill-rule="evenodd" clip-rule="evenodd" d="M173.064 172.634L223.421 122.277L227.355 126.211L176.998 176.568L173.064 172.634Z" fill="black"/>
<path fill-rule="evenodd" clip-rule="evenodd" d="M239.575 142.365L208.075 110.865L212.009 106.931L243.509 138.431L239.575 142.365Z" fill="black"/>
<path fill-rule="evenodd" clip-rule="evenodd" d="M189.218 192.722L157.718 161.222L161.652 157.288L193.152 188.788L189.218 192.722Z" fill="black"/>
<path d="M53 20H20V53" stroke="#9C9C9C" stroke-width="5"/>
<path d="M347 280L380 280L380 247" stroke="#9C9C9C" stroke-width="5"/>
<path d="M141.747 271.336L137.751 272.8L141.747 274.252V275.752L136.035 273.58V272.02L141.747 269.848V271.336ZM145.139 270.544H147.011V277H145.139V270.544ZM146.075 269.644C145.731 269.644 145.451 269.544 145.235 269.344C145.019 269.144 144.911 268.896 144.911 268.6C144.911 268.304 145.019 268.056 145.235 267.856C145.451 267.656 145.731 267.556 146.075 267.556C146.419 267.556 146.699 267.652 146.915 267.844C147.131 268.036 147.239 268.276 147.239 268.564C147.239 268.876 147.131 269.136 146.915 269.344C146.699 269.544 146.419 269.644 146.075 269.644ZM156.14 272.02V273.58L150.428 275.752V274.252L154.424 272.8L150.428 271.336V269.848L156.14 272.02ZM165.486 270.592H166.986L165.714 277H164.214L165.486 270.592ZM166.578 269.536C166.314 269.536 166.098 269.456 165.93 269.296C165.762 269.128 165.678 268.928 165.678 268.696C165.678 268.424 165.77 268.196 165.954 268.012C166.146 267.828 166.394 267.736 166.698 267.736C166.962 267.736 167.178 267.816 167.346 267.976C167.514 268.128 167.598 268.316 167.598 268.54C167.598 268.836 167.502 269.076 167.31 269.26C167.126 269.444 166.882 269.536 166.578 269.536ZM171.595 274.852C171.579 274.98 171.571 275.072 171.571 275.128C171.571 275.608 171.823 275.848 172.327 275.848C172.639 275.848 172.919 275.764 173.167 275.596L173.431 276.7C173.023 276.956 172.507 277.084 171.883 277.084C171.331 277.084 170.887 276.932 170.551 276.628C170.215 276.324 170.047 275.904 170.047 275.368C170.047 275.192 170.063 275.024 170.095 274.864L170.707 271.84H169.663L169.903 270.64H170.947L171.235 269.176H172.735L172.435 270.64H174.163L173.923 271.84H172.195L171.595 274.852ZM183.694 270.592L182.422 277H180.994L181.126 276.34C180.566 276.836 179.87 277.084 179.038 277.084C178.51 277.084 178.03 276.972 177.598 276.748C177.174 276.524 176.838 276.2 176.59 275.776C176.342 275.344 176.218 274.84 176.218 274.264C176.218 273.552 176.374 272.912 176.686 272.344C177.006 271.768 177.438 271.32 177.982 271C178.534 270.68 179.15 270.52 179.83 270.52C180.854 270.52 181.582 270.86 182.014 271.54L182.194 270.592H183.694ZM179.422 275.8C179.846 275.8 180.222 275.7 180.55 275.5C180.886 275.292 181.15 275.008 181.342 274.648C181.534 274.28 181.63 273.864 181.63 273.4C181.63 272.896 181.482 272.504 181.186 272.224C180.89 271.936 180.474 271.792 179.938 271.792C179.514 271.792 179.134 271.896 178.798 272.104C178.47 272.304 178.21 272.588 178.018 272.956C177.826 273.316 177.73 273.728 177.73 274.192C177.73 274.696 177.878 275.092 178.174 275.38C178.47 275.66 178.886 275.8 179.422 275.8ZM187.96 268.096H189.46L187.684 277H186.184L187.96 268.096ZM192.725 270.592H194.225L192.953 277H191.453L192.725 270.592ZM193.817 269.536C193.553 269.536 193.337 269.456 193.169 269.296C193.001 269.128 192.917 268.928 192.917 268.696C192.917 268.424 193.009 268.196 193.193 268.012C193.385 267.828 193.633 267.736 193.937 267.736C194.201 267.736 194.417 267.816 194.585 267.976C194.753 268.128 194.837 268.316 194.837 268.54C194.837 268.836 194.741 269.076 194.549 269.26C194.365 269.444 194.121 269.536 193.817 269.536ZM199.926 277.084C199.294 277.084 198.738 276.968 198.258 276.736C197.786 276.496 197.422 276.164 197.166 275.74C196.91 275.316 196.782 274.824 196.782 274.264C196.782 273.552 196.946 272.912 197.274 272.344C197.602 271.776 198.054 271.332 198.63 271.012C199.214 270.684 199.878 270.52 200.622 270.52C201.27 270.52 201.826 270.648 202.29 270.904C202.762 271.152 203.126 271.524 203.382 272.02L202.098 272.68C201.802 272.088 201.27 271.792 200.502 271.792C200.078 271.792 199.698 271.896 199.362 272.104C199.034 272.304 198.774 272.588 198.582 272.956C198.39 273.316 198.294 273.728 198.294 274.192C198.294 274.696 198.442 275.092 198.738 275.38C199.034 275.66 199.454 275.8 199.998 275.8C200.366 275.8 200.698 275.728 200.994 275.584C201.29 275.432 201.542 275.208 201.75 274.912L202.854 275.656C202.558 276.104 202.15 276.456 201.63 276.712C201.11 276.96 200.542 277.084 199.926 277.084ZM212.109 273.328C212.109 273.64 212.077 273.944 212.013 274.24H206.925C206.949 275.288 207.565 275.812 208.773 275.812C209.141 275.812 209.485 275.756 209.805 275.644C210.125 275.524 210.397 275.36 210.621 275.152L211.245 276.196C210.917 276.492 210.521 276.716 210.057 276.868C209.601 277.012 209.121 277.084 208.617 277.084C207.977 277.084 207.417 276.968 206.937 276.736C206.465 276.504 206.101 276.176 205.845 275.752C205.589 275.32 205.461 274.824 205.461 274.264C205.461 273.552 205.617 272.912 205.929 272.344C206.249 271.768 206.689 271.32 207.249 271C207.817 270.68 208.453 270.52 209.157 270.52C210.053 270.52 210.769 270.772 211.305 271.276C211.841 271.772 212.109 272.456 212.109 273.328ZM209.085 271.72C208.581 271.72 208.149 271.856 207.789 272.128C207.437 272.4 207.193 272.772 207.057 273.244H210.729C210.737 272.764 210.589 272.392 210.285 272.128C209.989 271.856 209.589 271.72 209.085 271.72ZM225.937 271.336L221.941 272.8L225.937 274.252V275.752L220.225 273.58V272.02L225.937 269.848V271.336ZM232.028 266.896H233.696L229.736 278.2H228.068L232.028 266.896ZM235.98 270.544H237.852V277H235.98V270.544ZM236.916 269.644C236.572 269.644 236.292 269.544 236.076 269.344C235.86 269.144 235.752 268.896 235.752 268.6C235.752 268.304 235.86 268.056 236.076 267.856C236.292 267.656 236.572 267.556 236.916 267.556C237.26 267.556 237.54 267.652 237.756 267.844C237.972 268.036 238.08 268.276 238.08 268.564C238.08 268.876 237.972 269.136 237.756 269.344C237.54 269.544 237.26 269.644 236.916 269.644ZM246.981 272.02V273.58L241.269 275.752V274.252L245.265 272.8L241.269 271.336V269.848L246.981 272.02Z" fill="#9C9C9C"/>
<defs>
<filter id="filter0_d" x="98.2061" y="48.2061" width="203.794" height="203.794" filterUnits="userSpaceOnUse" color-interpolation-filters="sRGB">
<feFlood flood-opacity="0" result="BackgroundImageFix"/>
<feColorMatrix in="SourceAlpha" type="matrix" values="0 0 0 0 0 0 0 0 0 0 0 0 0 0 0 0 0 0 127 0"/>
<feOffset/>
<feGaussianBlur stdDeviation="12"/>
<feColorMatrix type="matrix" values="0 0 0 0 0 0 0 0 0 0 0 0 0 0 0 0 0 0 0.25 0"/>
<feBlend mode="normal" in2="BackgroundImageFix" result="effect1_dropShadow"/>
<feBlend mode="normal" in="SourceGraphic" in2="effect1_dropShadow" result="shape"/>
</filter>
</defs>
</svg>
