<svg width="1440" height="1024" viewBox="0 0 1440 1024" fill="none" xmlns="http://www.w3.org/2000/svg">
<g clip-path="url(#clip0)">
<rect width="1440" height="1024" fill="#0B0C10"/>
<rect width="720" height="1024" fill="#0B0C10"/>
<rect x="720" width="720" height="1024" fill="#5FF377"/>
<rect x="720" y="530" width="152" height="152" fill="#0B0C10"/>
<rect x="812" y="530" width="30" height="152" fill="#5FF377"/>
<rect x="568" y="378" width="152" height="152" fill="#5FF377"/>
<rect x="598" y="378" width="30" height="152" fill="#0B0C10"/>
<path fill-rule="evenodd" clip-rule="evenodd" d="M231 608L341 416L451 608H295.308L309.12 580.814H404.188L341 470.523L278.546 579.657L262.308 608H231Z" fill="#5FF377"/>
<path d="M853.334 405.1L839.034 419.6V438H831.634V368H839.034V410.3L880.134 368H888.634L858.334 399.7L890.734 438H881.934L853.334 405.1ZM954.528 438L938.528 415.5C936.728 415.7 934.861 415.8 932.928 415.8H914.128V438H906.728V368H932.928C941.861 368 948.861 370.133 953.928 374.4C958.995 378.667 961.528 384.533 961.528 392C961.528 397.467 960.128 402.1 957.328 405.9C954.595 409.633 950.661 412.333 945.528 414L962.628 438H954.528ZM932.728 409.5C939.661 409.5 944.961 407.967 948.628 404.9C952.295 401.833 954.128 397.533 954.128 392C954.128 386.333 952.295 382 948.628 379C944.961 375.933 939.661 374.4 932.728 374.4H914.128V409.5H932.728ZM1006.02 413.8V438H998.717V413.8L970.717 368H978.617L1002.62 407.3L1026.62 368H1034.02L1006.02 413.8ZM1074.23 368C1083.16 368 1090.16 370.133 1095.23 374.4C1100.3 378.667 1102.83 384.533 1102.83 392C1102.83 399.467 1100.3 405.333 1095.23 409.6C1090.16 413.8 1083.16 415.9 1074.23 415.9H1055.43V438H1048.03V368H1074.23ZM1074.03 409.4C1080.96 409.4 1086.26 407.9 1089.93 404.9C1093.6 401.833 1095.43 397.533 1095.43 392C1095.43 386.333 1093.6 382 1089.93 379C1086.26 375.933 1080.96 374.4 1074.03 374.4H1055.43V409.4H1074.03ZM1134.09 374.4H1109.49V368H1166.09V374.4H1141.49V438H1134.09V374.4ZM1211.53 438.6C1204.6 438.6 1198.3 437.067 1192.63 434C1187.03 430.867 1182.63 426.6 1179.43 421.2C1176.3 415.8 1174.73 409.733 1174.73 403C1174.73 396.267 1176.3 390.2 1179.43 384.8C1182.63 379.4 1187.03 375.167 1192.63 372.1C1198.3 368.967 1204.6 367.4 1211.53 367.4C1218.46 367.4 1224.7 368.933 1230.23 372C1235.83 375.067 1240.23 379.333 1243.43 384.8C1246.63 390.2 1248.23 396.267 1248.23 403C1248.23 409.733 1246.63 415.833 1243.43 421.3C1240.23 426.7 1235.83 430.933 1230.23 434C1224.7 437.067 1218.46 438.6 1211.53 438.6ZM1211.53 432C1217.06 432 1222.06 430.767 1226.53 428.3C1231 425.767 1234.5 422.3 1237.03 417.9C1239.56 413.433 1240.83 408.467 1240.83 403C1240.83 397.533 1239.56 392.6 1237.03 388.2C1234.5 383.733 1231 380.267 1226.53 377.8C1222.06 375.267 1217.06 374 1211.53 374C1206 374 1200.96 375.267 1196.43 377.8C1191.96 380.267 1188.43 383.733 1185.83 388.2C1183.3 392.6 1182.03 397.533 1182.03 403C1182.03 408.467 1183.3 413.433 1185.83 417.9C1188.43 422.3 1191.96 425.767 1196.43 428.3C1200.96 430.767 1206 432 1211.53 432ZM1327.32 368V438H1321.22L1276.22 381.2V438H1268.82V368H1274.92L1320.02 424.8V368H1327.32Z" fill="#0B0C10"/>
<path d="M935.737 496.204C933.969 496.204 932.269 495.921 930.637 495.354C929.028 494.787 927.781 494.039 926.897 493.11L927.883 491.172C928.745 492.033 929.889 492.736 931.317 493.28C932.745 493.801 934.219 494.062 935.737 494.062C937.868 494.062 939.466 493.677 940.531 492.906C941.597 492.113 942.129 491.093 942.129 489.846C942.129 488.894 941.835 488.135 941.245 487.568C940.679 487.001 939.976 486.571 939.137 486.276C938.299 485.959 937.131 485.619 935.635 485.256C933.845 484.803 932.417 484.372 931.351 483.964C930.286 483.533 929.368 482.887 928.597 482.026C927.849 481.165 927.475 479.997 927.475 478.524C927.475 477.323 927.793 476.235 928.427 475.26C929.062 474.263 930.037 473.469 931.351 472.88C932.666 472.291 934.298 471.996 936.247 471.996C937.607 471.996 938.933 472.189 940.225 472.574C941.54 472.937 942.673 473.447 943.625 474.104L942.775 476.11C941.778 475.453 940.713 474.965 939.579 474.648C938.446 474.308 937.335 474.138 936.247 474.138C934.162 474.138 932.587 474.546 931.521 475.362C930.479 476.155 929.957 477.187 929.957 478.456C929.957 479.408 930.241 480.179 930.807 480.768C931.397 481.335 932.122 481.777 932.983 482.094C933.867 482.389 935.046 482.717 936.519 483.08C938.265 483.511 939.67 483.941 940.735 484.372C941.823 484.78 942.741 485.415 943.489 486.276C944.237 487.115 944.611 488.259 944.611 489.71C944.611 490.911 944.283 492.011 943.625 493.008C942.991 493.983 942.005 494.765 940.667 495.354C939.33 495.921 937.687 496.204 935.737 496.204ZM980.225 474.376H971.861V472.2H991.105V474.376H982.741V496H980.225V474.376ZM1030.09 496.204C1027.01 496.204 1024.6 495.32 1022.88 493.552C1021.16 491.784 1020.3 489.211 1020.3 485.834V472.2H1022.81V485.732C1022.81 488.497 1023.44 490.56 1024.68 491.92C1025.93 493.28 1027.73 493.96 1030.09 493.96C1032.47 493.96 1034.28 493.28 1035.53 491.92C1036.77 490.56 1037.4 488.497 1037.4 485.732V472.2H1039.85V485.834C1039.85 489.211 1038.98 491.784 1037.26 493.552C1035.56 495.32 1033.17 496.204 1030.09 496.204ZM1073.27 472.2H1082.96C1085.47 472.2 1087.69 472.71 1089.62 473.73C1091.55 474.727 1093.04 476.133 1094.11 477.946C1095.17 479.737 1095.71 481.788 1095.71 484.1C1095.71 486.412 1095.17 488.475 1094.11 490.288C1093.04 492.079 1091.55 493.484 1089.62 494.504C1087.69 495.501 1085.47 496 1082.96 496H1073.27V472.2ZM1082.82 493.824C1084.91 493.824 1086.73 493.416 1088.3 492.6C1089.86 491.761 1091.07 490.617 1091.93 489.166C1092.79 487.693 1093.23 486.004 1093.23 484.1C1093.23 482.196 1092.79 480.519 1091.93 479.068C1091.07 477.595 1089.86 476.45 1088.3 475.634C1086.73 474.795 1084.91 474.376 1082.82 474.376H1075.78V493.824H1082.82ZM1127.2 472.2H1129.71V496H1127.2V472.2ZM1173.7 496.204C1171.34 496.204 1169.2 495.683 1167.28 494.64C1165.37 493.575 1163.88 492.124 1162.79 490.288C1161.72 488.452 1161.19 486.389 1161.19 484.1C1161.19 481.811 1161.72 479.748 1162.79 477.912C1163.88 476.076 1165.37 474.637 1167.28 473.594C1169.2 472.529 1171.34 471.996 1173.7 471.996C1176.06 471.996 1178.18 472.517 1180.06 473.56C1181.96 474.603 1183.46 476.053 1184.55 477.912C1185.64 479.748 1186.18 481.811 1186.18 484.1C1186.18 486.389 1185.64 488.463 1184.55 490.322C1183.46 492.158 1181.96 493.597 1180.06 494.64C1178.18 495.683 1176.06 496.204 1173.7 496.204ZM1173.7 493.96C1175.58 493.96 1177.28 493.541 1178.8 492.702C1180.32 491.841 1181.51 490.662 1182.37 489.166C1183.23 487.647 1183.66 485.959 1183.66 484.1C1183.66 482.241 1183.23 480.564 1182.37 479.068C1181.51 477.549 1180.32 476.371 1178.8 475.532C1177.28 474.671 1175.58 474.24 1173.7 474.24C1171.82 474.24 1170.11 474.671 1168.57 475.532C1167.05 476.371 1165.85 477.549 1164.96 479.068C1164.1 480.564 1163.67 482.241 1163.67 484.1C1163.67 485.959 1164.1 487.647 1164.96 489.166C1165.85 490.662 1167.05 491.841 1168.57 492.702C1170.11 493.541 1171.82 493.96 1173.7 493.96ZM1224.22 496.204C1222.45 496.204 1220.75 495.921 1219.12 495.354C1217.51 494.787 1216.26 494.039 1215.38 493.11L1216.37 491.172C1217.23 492.033 1218.37 492.736 1219.8 493.28C1221.23 493.801 1222.7 494.062 1224.22 494.062C1226.35 494.062 1227.95 493.677 1229.01 492.906C1230.08 492.113 1230.61 491.093 1230.61 489.846C1230.61 488.894 1230.32 488.135 1229.73 487.568C1229.16 487.001 1228.46 486.571 1227.62 486.276C1226.78 485.959 1225.61 485.619 1224.12 485.256C1222.33 484.803 1220.9 484.372 1219.83 483.964C1218.77 483.533 1217.85 482.887 1217.08 482.026C1216.33 481.165 1215.96 479.997 1215.96 478.524C1215.96 477.323 1216.28 476.235 1216.91 475.26C1217.55 474.263 1218.52 473.469 1219.83 472.88C1221.15 472.291 1222.78 471.996 1224.73 471.996C1226.09 471.996 1227.42 472.189 1228.71 472.574C1230.02 472.937 1231.16 473.447 1232.11 474.104L1231.26 476.11C1230.26 475.453 1229.2 474.965 1228.06 474.648C1226.93 474.308 1225.82 474.138 1224.73 474.138C1222.65 474.138 1221.07 474.546 1220 475.362C1218.96 476.155 1218.44 477.187 1218.44 478.456C1218.44 479.408 1218.72 480.179 1219.29 480.768C1219.88 481.335 1220.61 481.777 1221.47 482.094C1222.35 482.389 1223.53 482.717 1225 483.08C1226.75 483.511 1228.15 483.941 1229.22 484.372C1230.31 484.78 1231.22 485.415 1231.97 486.276C1232.72 487.115 1233.09 488.259 1233.09 489.71C1233.09 490.911 1232.77 492.011 1232.11 493.008C1231.47 493.983 1230.49 494.765 1229.15 495.354C1227.81 495.921 1226.17 496.204 1224.22 496.204Z" fill="#0B5500"/>
<g filter="url(#filter0_d)">
<rect x="946" y="530" width="267" height="153" rx="76.5" fill="#0B0C10"/>
</g>
<path d="M1001.47 616.216C999.577 616.216 997.867 615.802 996.337 614.974C994.825 614.128 993.637 612.976 992.773 611.518C991.909 610.042 991.477 608.386 991.477 606.55C991.477 604.714 991.909 603.067 992.773 601.609C993.637 600.133 994.834 598.981 996.364 598.153C997.894 597.307 999.604 596.884 1001.49 596.884C1002.97 596.884 1004.32 597.136 1005.54 597.64C1006.77 598.126 1007.81 598.855 1008.68 599.827L1006.92 601.528C1005.5 600.034 1003.73 599.287 1001.6 599.287C1000.2 599.287 998.929 599.602 997.795 600.232C996.661 600.862 995.77 601.735 995.122 602.851C994.492 603.949 994.177 605.182 994.177 606.55C994.177 607.918 994.492 609.16 995.122 610.276C995.77 611.374 996.661 612.238 997.795 612.868C998.929 613.498 1000.2 613.813 1001.6 613.813C1003.71 613.813 1005.48 613.057 1006.92 611.545L1008.68 613.246C1007.81 614.218 1006.76 614.956 1005.52 615.46C1004.29 615.964 1002.94 616.216 1001.47 616.216ZM1020.66 616.216C1018.76 616.216 1017.04 615.802 1015.51 614.974C1013.98 614.128 1012.77 612.967 1011.89 611.491C1011.03 610.015 1010.59 608.368 1010.59 606.55C1010.59 604.732 1011.03 603.085 1011.89 601.609C1012.77 600.133 1013.98 598.981 1015.51 598.153C1017.04 597.307 1018.76 596.884 1020.66 596.884C1022.55 596.884 1024.26 597.307 1025.79 598.153C1027.32 598.981 1028.52 600.133 1029.39 601.609C1030.25 603.067 1030.68 604.714 1030.68 606.55C1030.68 608.386 1030.25 610.042 1029.39 611.518C1028.52 612.976 1027.32 614.128 1025.79 614.974C1024.26 615.802 1022.55 616.216 1020.66 616.216ZM1020.66 613.813C1022.05 613.813 1023.29 613.498 1024.39 612.868C1025.51 612.238 1026.38 611.374 1027.01 610.276C1027.66 609.16 1027.98 607.918 1027.98 606.55C1027.98 605.182 1027.66 603.949 1027.01 602.851C1026.38 601.735 1025.51 600.862 1024.39 600.232C1023.29 599.602 1022.05 599.287 1020.66 599.287C1019.28 599.287 1018.02 599.602 1016.88 600.232C1015.77 600.862 1014.89 601.735 1014.24 602.851C1013.61 603.949 1013.29 605.182 1013.29 606.55C1013.29 607.918 1013.61 609.16 1014.24 610.276C1014.89 611.374 1015.77 612.238 1016.88 612.868C1018.02 613.498 1019.28 613.813 1020.66 613.813ZM1051.06 597.1V616H1048.85L1037.51 601.906V616H1034.81V597.1H1037.02L1048.36 611.194V597.1H1051.06ZM1060.47 599.449H1053.99V597.1H1069.63V599.449H1063.15V616H1060.47V599.449ZM1083.66 611.275H1073.61L1071.54 616H1068.75L1077.31 597.1H1079.99L1088.57 616H1085.74L1083.66 611.275ZM1082.71 609.115L1078.64 599.854L1074.56 609.115H1082.71ZM1099.58 616.216C1097.69 616.216 1095.98 615.802 1094.45 614.974C1092.94 614.128 1091.75 612.976 1090.89 611.518C1090.02 610.042 1089.59 608.386 1089.59 606.55C1089.59 604.714 1090.02 603.067 1090.89 601.609C1091.75 600.133 1092.95 598.981 1094.48 598.153C1096.01 597.307 1097.72 596.884 1099.61 596.884C1101.08 596.884 1102.43 597.136 1103.66 597.64C1104.88 598.126 1105.92 598.855 1106.79 599.827L1105.03 601.528C1103.61 600.034 1101.84 599.287 1099.71 599.287C1098.31 599.287 1097.04 599.602 1095.91 600.232C1094.77 600.862 1093.88 601.735 1093.23 602.851C1092.6 603.949 1092.29 605.182 1092.29 606.55C1092.29 607.918 1092.6 609.16 1093.23 610.276C1093.88 611.374 1094.77 612.238 1095.91 612.868C1097.04 613.498 1098.31 613.813 1099.71 613.813C1101.82 613.813 1103.59 613.057 1105.03 611.545L1106.79 613.246C1105.92 614.218 1104.87 614.956 1103.63 615.46C1102.41 615.964 1101.06 616.216 1099.58 616.216ZM1114.18 599.449H1107.7V597.1H1123.34V599.449H1116.86V616H1114.18V599.449ZM1141.36 616.216C1138.84 616.216 1136.87 615.496 1135.47 614.056C1134.07 612.616 1133.36 610.546 1133.36 607.846V597.1H1136.06V607.738C1136.06 611.788 1137.84 613.813 1141.38 613.813C1143.11 613.813 1144.43 613.318 1145.35 612.328C1146.27 611.32 1146.73 609.79 1146.73 607.738V597.1H1149.35V607.846C1149.35 610.564 1148.65 612.643 1147.24 614.083C1145.84 615.505 1143.88 616.216 1141.36 616.216ZM1160.39 616.216C1158.97 616.216 1157.59 616 1156.26 615.568C1154.95 615.118 1153.91 614.542 1153.16 613.84L1154.16 611.734C1154.88 612.382 1155.79 612.913 1156.91 613.327C1158.04 613.723 1159.2 613.921 1160.39 613.921C1161.96 613.921 1163.13 613.66 1163.9 613.138C1164.68 612.598 1165.06 611.887 1165.06 611.005C1165.06 610.357 1164.85 609.835 1164.42 609.439C1164 609.025 1163.48 608.71 1162.85 608.494C1162.24 608.278 1161.36 608.035 1160.23 607.765C1158.81 607.423 1157.66 607.081 1156.77 606.739C1155.91 606.397 1155.16 605.875 1154.53 605.173C1153.92 604.453 1153.62 603.49 1153.62 602.284C1153.62 601.276 1153.88 600.367 1154.4 599.557C1154.94 598.747 1155.75 598.099 1156.83 597.613C1157.91 597.127 1159.25 596.884 1160.85 596.884C1161.97 596.884 1163.07 597.028 1164.15 597.316C1165.23 597.604 1166.15 598.018 1166.93 598.558L1166.04 600.718C1165.24 600.214 1164.4 599.836 1163.5 599.584C1162.6 599.314 1161.72 599.179 1160.85 599.179C1159.32 599.179 1158.17 599.458 1157.4 600.016C1156.64 600.574 1156.26 601.294 1156.26 602.176C1156.26 602.824 1156.48 603.355 1156.91 603.769C1157.34 604.165 1157.87 604.48 1158.5 604.714C1159.15 604.93 1160.02 605.164 1161.12 605.416C1162.54 605.758 1163.69 606.1 1164.55 606.442C1165.41 606.784 1166.15 607.306 1166.76 608.008C1167.39 608.71 1167.71 609.655 1167.71 610.843C1167.71 611.833 1167.44 612.742 1166.9 613.57C1166.36 614.38 1165.54 615.028 1164.44 615.514C1163.34 615.982 1161.99 616.216 1160.39 616.216Z" fill="white"/>
<rect x="52.909" y="378.364" width="62.1818" height="321.273" rx="31.0909" fill="white"/>
<g filter="url(#filter1_d)">
<circle cx="84" cy="539" r="57" fill="#5FF377"/>
</g>
<path d="M97.7641 662.32C95.551 662.32 93.4099 661.96 91.4128 661.313C90.7831 661.097 90.0813 661.259 89.5956 661.744L86.7707 665.289C81.6789 662.86 76.9109 658.272 74.374 653L77.8825 650.013C78.3683 649.51 78.5122 648.808 78.3143 648.178C77.6486 646.181 77.3067 644.04 77.3067 641.827C77.3067 640.855 76.4971 640.046 75.5255 640.046H69.3001C68.3285 640.046 67.159 640.477 67.159 641.827C67.159 658.542 81.0671 672.432 97.7641 672.432C99.0416 672.432 99.5454 671.298 99.5454 670.309V664.101C99.5454 663.13 98.7357 662.32 97.7641 662.32Z" fill="#919191"/>
<path d="M77.7818 559.727V542.81H88.9227V559.727H102.849V537.171H111.205L83.3523 511.796L55.5 537.171H63.8557V559.727H77.7818Z" fill="#0B0C10"/>
<path d="M94.3636 410.75L97.6023 417.227H92.7443L89.5057 410.75H86.267L89.5057 417.227H84.6477L81.4091 410.75H78.1704L81.4091 417.227H76.5511L73.3125 410.75H71.6932C69.9119 410.75 68.4707 412.208 68.4707 413.989L68.4545 433.421C68.4545 435.202 69.9119 436.659 71.6932 436.659H97.6023C99.3835 436.659 100.841 435.202 100.841 433.421V410.75H94.3636Z" fill="#919191"/>
</g>
<defs>
<filter id="filter0_d" x="942" y="530" width="275" height="161" filterUnits="userSpaceOnUse" color-interpolation-filters="sRGB">
<feFlood flood-opacity="0" result="BackgroundImageFix"/>
<feColorMatrix in="SourceAlpha" type="matrix" values="0 0 0 0 0 0 0 0 0 0 0 0 0 0 0 0 0 0 127 0"/>
<feOffset dy="4"/>
<feGaussianBlur stdDeviation="2"/>
<feColorMatrix type="matrix" values="0 0 0 0 0 0 0 0 0 0 0 0 0 0 0 0 0 0 0.25 0"/>
<feBlend mode="normal" in2="BackgroundImageFix" result="effect1_dropShadow"/>
<feBlend mode="normal" in="SourceGraphic" in2="effect1_dropShadow" result="shape"/>
</filter>
<filter id="filter1_d" x="23" y="482" width="122" height="122" filterUnits="userSpaceOnUse" color-interpolation-filters="sRGB">
<feFlood flood-opacity="0" result="BackgroundImageFix"/>
<feColorMatrix in="SourceAlpha" type="matrix" values="0 0 0 0 0 0 0 0 0 0 0 0 0 0 0 0 0 0 127 0"/>
<feOffset dy="4"/>
<feGaussianBlur stdDeviation="2"/>
<feColorMatrix type="matrix" values="0 0 0 0 0 0 0 0 0 0 0 0 0 0 0 0 0 0 0.25 0"/>
<feBlend mode="normal" in2="BackgroundImageFix" result="effect1_dropShadow"/>
<feBlend mode="normal" in="SourceGraphic" in2="effect1_dropShadow" result="shape"/>
</filter>
<clipPath id="clip0">
<rect width="1440" height="1024" fill="white"/>
</clipPath>
</defs>
</svg>
