<svg width="400" height="300" viewBox="0 0 400 300" fill="none" xmlns="http://www.w3.org/2000/svg">
<rect width="400" height="300" fill="#6650EE"/>
<path fill-rule="evenodd" clip-rule="evenodd" d="M160 100L214.989 155.083C216.337 156.433 216.337 158.621 214.989 159.971C213.642 161.32 211.457 161.32 210.11 159.971L166.9 116.688V195.544C166.9 197.453 165.356 199 163.45 199C161.545 199 160 197.453 160 195.544V100Z" fill="white"/>
<path fill-rule="evenodd" clip-rule="evenodd" d="M241 101L222.835 119.012C221.488 120.348 221.488 122.514 222.835 123.85C224.183 125.186 226.367 125.186 227.715 123.85L234.1 117.519V120.049C234.1 121.939 235.644 123.471 237.55 123.471C239.455 123.471 241 121.939 241 120.049V101ZM234.1 141.629V163.209C234.1 165.099 235.644 166.63 237.55 166.63C239.455 166.63 241 165.099 241 163.209V141.629C241 139.74 239.455 138.208 237.55 138.208C235.644 138.208 234.1 139.74 234.1 141.629ZM203.165 143.355C201.817 142.019 199.633 142.019 198.285 143.355L186.011 155.527C184.663 156.863 184.663 159.029 186.011 160.365C187.358 161.701 189.543 161.701 190.89 160.365L203.165 148.193C204.512 146.857 204.512 144.691 203.165 143.355ZM237.55 181.368C235.644 181.368 234.1 182.899 234.1 184.789V195.579C234.1 197.468 235.644 199 237.55 199C239.455 199 241 197.468 241 195.579V184.789C241 182.899 239.455 181.368 237.55 181.368Z" fill="white"/>
</svg>
