<svg width="1599" height="715" viewBox="0 0 1599 715" fill="none" xmlns="http://www.w3.org/2000/svg">
<rect width="1599" height="715" fill="#36DAB3"/>
<path d="M715.508 401.178L1050.47 269.392L913.188 511L715.508 401.178Z" fill="white"/>
<path d="M882.502 315.388L547.545 447.174L684.823 205.566L882.502 315.388Z" fill="white"/>
<path d="M750.955 610.838V656.397H740.442L720.513 632.12V656.397H708V610.838H718.513L738.443 635.114V610.838H750.955Z" fill="#AEFFEC"/>
<path fill-rule="evenodd" clip-rule="evenodd" d="M845.404 609.536H880.711L890.262 615.165L880.711 620.794H865.019V626.252L879.858 626.252V637.509L865.019 637.509V659H861.608V637.509L844.551 637.509L835 631.88L844.551 626.252L861.608 626.252V620.794H845.404V609.536Z" fill="#AEFFEC"/>
<path d="M808.229 636.213H802.428V642.078H797.143V636.213H791.307V631.022H797.143V625.156H802.428V631.022H808.229V636.213Z" fill="#AEFFEC"/>
</svg>
