<svg width="2862" height="1386" viewBox="0 0 2862 1386" fill="none" xmlns="http://www.w3.org/2000/svg">
<rect width="2862" height="1386" fill="#FFC700"/>
<path d="M1775 693.5C1775 883.21 1621.21 1037 1431.5 1037C1241.79 1037 1088 883.21 1088 693.5C1088 503.79 1241.79 350 1431.5 350C1621.21 350 1775 503.79 1775 693.5Z" fill="white"/>
<g style="mix-blend-mode:multiply">
<path d="M1742 694C1742 865.208 1603.21 1004 1432 1004C1260.79 1004 1122 865.208 1122 694C1122 522.792 1260.79 384 1432 384C1603.21 384 1742 522.792 1742 694Z" fill="#FFC700"/>
</g>
<path d="M1514 596C1514 681.604 1444.6 751 1359 751C1273.4 751 1204 681.604 1204 596C1204 510.396 1273.4 441 1359 441C1444.6 441 1514 510.396 1514 596Z" fill="white"/>
<path d="M1282 790C1282 811.539 1264.54 829 1243 829C1221.46 829 1204 811.539 1204 790C1204 768.461 1221.46 751 1243 751C1264.54 751 1282 768.461 1282 790Z" fill="white"/>
</svg>
